<?xml version="1.0" encoding="UTF-8" standalone="no"?>
<svg
   xmlns:dc="http://purl.org/dc/elements/1.1/"
   xmlns:cc="http://creativecommons.org/ns#"
   xmlns:rdf="http://www.w3.org/1999/02/22-rdf-syntax-ns#"
   xmlns:svg="http://www.w3.org/2000/svg"
   xmlns="http://www.w3.org/2000/svg"
   version="1.1"
   id="svg65474"
   viewBox="0 0 805.37419 829.49502"
   height="234.10193mm"
   width="227.29449mm">
  <defs
     id="defs65476" />
  <metadata
     id="metadata65479">
    <rdf:RDF>
      <cc:Work
         rdf:about="">
        <dc:format>image/svg+xml</dc:format>
        <dc:type
           rdf:resource="http://purl.org/dc/dcmitype/StillImage" />
        <dc:title></dc:title>
      </cc:Work>
    </rdf:RDF>
  </metadata>
  <g
     transform="translate(265.62208,-127.89892)"
     id="layer1">
    <g
       transform="matrix(2.5657741,0,0,2.3583427,-791.44026,-344.5125)"
       id="g66049">
      <g
         id="g66033"
         transform="translate(2371.4286,945.71429)">
        <g
           transform="translate(13.364194,-53.31209)"
           id="g66064">
          <path
             transform="translate(-2371.4286,-945.71429)"
             id="path66047"
             d="m 300.4652,260.80177 -51.16484,11.9597 -25.64467,18.40292 -17.9414,35.48353 5.71428,80 -14.28571,25.71428 -2.85715,34.28572 57.14286,17.14286 L 240,529.50506 l 8.57143,34.28572 45.71428,22.85714 177.14286,0 -16.0073,-50.68493 L 434.2161,462.20657 480,343.79078 434.28571,269.50506 Z"
             style="fill:#d6dee3;fill-opacity:1;fill-rule:evenodd;stroke:none;stroke-width:1px;stroke-linecap:butt;stroke-linejoin:miter;stroke-opacity:1" />
          <path
             id="path66045"
             d="m -2016.8572,-341.75074 c -32.7809,-1.8349 -42.4207,-3.01456 -73.3157,-8.97191 l -27.8157,-5.36358 -7.0783,-4.8115 c -10.512,-7.14561 -16.3996,-12.80835 -20.3825,-19.60408 l -3.5651,-6.08289 2.2604,-4.06226 c 1.2431,-2.23425 3.0076,-5.18727 3.9209,-6.56227 0.9134,-1.375 3.3336,-5.12131 5.3784,-8.32513 4.241,-6.64494 4.6282,-5.39993 -4.8808,-15.69305 -9.789,-10.59628 -18.5884,-22.52479 -28.3487,-38.4297 l -9.1729,-14.94789 0,-17.05211 -1e-4,-17.05212 3.5367,-3 3.5367,-3 0.9297,-49.5 c 1.3397,-71.33239 2.103,-75.80413 13.997,-82.00906 1.925,-1.00424 5.525,-3.92265 8,-6.48535 5.9061,-6.11543 9.3104,-8.09021 5.6313,-3.26668 -1.4472,1.89743 -2.6313,3.92111 -2.6313,4.49707 0,0.57596 -1.125,1.32956 -2.5,1.67466 -2.5142,0.63104 -3.3609,2.93925 -1.5,4.08936 1.5006,0.92742 1.2034,5.76455 -0.5039,8.20212 -1.783,2.54562 -0.4942,7.29788 1.9791,7.29788 0.8387,0 3.3664,1.8416 5.6173,4.09245 2.9759,2.97595 4.6569,3.94483 6.1616,3.55134 1.1381,-0.29761 2.9339,-0.0784 3.9908,0.48725 1.4433,0.77245 2.3559,0.63525 3.667,-0.55134 3.2391,-2.93129 6.0339,-1.71518 7.5727,3.29515 0.9606,3.12761 -1.2157,4.53136 -4.0977,2.64303 -2.1133,-1.3847 -6.3869,-1.03312 -6.3869,0.52544 0,0.44554 2.3625,1.97807 5.25,3.40562 12.6596,6.25881 13.0522,6.69613 12.5273,13.95325 -0.238,3.29063 -0.935,6.15038 -1.5489,6.355 -1.8794,0.62649 -0.2235,3.05429 1.7341,2.54236 1.0083,-0.26368 3.0574,0.32259 4.5534,1.30282 1.6877,1.10582 4.6066,1.78225 7.6907,1.78225 4.5499,0 5.2564,-0.3338 8.3445,-3.94231 1.8556,-2.16827 3.3907,-4.72333 3.4114,-5.67791 0.023,-1.074 2.2294,-2.89842 5.7875,-4.786 3.1625,-1.67771 7.1491,-3.93858 8.8591,-5.02415 2.2666,-1.43894 4.9763,-1.99894 10,-2.06669 3.79,-0.0511 7.449,-0.54818 8.1312,-1.10461 0.6821,-0.55643 4.2821,-1.24434 8,-1.52868 7.374,-0.56397 10.2597,-1.59465 10.2597,-3.66445 0,-0.7369 1.4625,-1.63454 3.25,-1.99475 3.9083,-0.78758 2.4075,-2.13924 -3.4795,-3.13385 -2.0738,-0.35036 -3.7705,-0.95746 -3.7705,-1.34912 0,-1.44513 2.2876,-2.93897 3.6815,-2.40407 0.8883,0.34087 1.6407,-0.22407 1.9686,-1.47818 0.3932,-1.50351 1.6683,-2.20047 4.9171,-2.68765 5.5041,-0.8254 6.2266,-1.97727 3.5288,-5.62628 -1.4486,-1.95924 -1.9427,-3.67841 -1.53,-5.32276 0.4704,-1.87443 0.076,-2.72261 -1.7282,-3.71589 -1.2858,-0.70788 -3.0969,-1.17138 -4.0247,-1.03 -0.9298,0.14169 -2.2166,-0.77618 -2.867,-2.0451 -0.6491,-1.26619 -1.9723,-2.97717 -2.9403,-3.80217 -2.0688,-1.76296 -3.5894,-13 -1.7592,-13 0.6061,0 0.1058,-1.06047 -1.1119,-2.3566 -1.2176,-1.29614 -2.4858,-4.03186 -2.818,-6.0794 -0.4399,-2.71085 -1.261,-3.97252 -3.0206,-4.64152 -1.329,-0.5053 -2.157,-1.33848 -1.84,-1.85151 0.9775,-1.58161 -1.3504,-2.29077 -9.0531,-2.75791 -6.2473,-0.37886 -7.403,-0.20417 -7.403,1.11899 0,1.87945 -1.1487,2.01923 -2.8243,0.34367 -1.3496,-1.34961 -11.0165,-1.75165 -11.4421,-0.47586 -0.1468,0.43992 -1.828,0.14341 -3.7362,-0.6589 -1.9081,-0.80231 -4.1507,-1.12403 -4.9834,-0.71492 -0.8327,0.40911 -4.214,1.34056 -7.514,2.06989 -3.3,0.72934 -6.4275,1.70362 -6.95,2.16507 -0.5225,0.46145 -1.93,0.839 -3.1279,0.839 -1.1978,0 -3.7934,0.675 -5.7679,1.5 -1.9745,0.825 -4.552,1.5 -5.7278,1.5 -1.9294,0 -1.8139,-0.30271 1.1847,-3.10375 5.1679,-4.82757 12.6386,-8.3331 17.3303,-8.13203 2.2322,0.0957 7.2086,-0.67856 11.0586,-1.72051 3.85,-1.04194 9.475,-2.19435 12.5,-2.56089 3.025,-0.36655 10.8672,-1.55073 17.4271,-2.63151 11.1467,-1.83649 13.731,-1.89221 39.5,-0.85164 20.4464,0.82563 32.8987,1.8803 48.1785,4.08056 18.5517,2.6714 22.337,3.56616 37.9763,8.97675 19.5061,6.74833 18.835,6.39061 32.109,17.11562 l 9.6909,7.82996 5.9912,12.24872 c 5.9714,12.20798 5.9955,12.29362 7.2583,25.74872 1.1179,11.91068 1.6443,14.21608 4.4714,19.58254 5.1544,9.78404 5.9454,19.80772 2.9323,37.15683 -1.3144,7.56835 -3.1143,18.93563 -3.9998,25.26063 -0.8854,6.325 -2.2681,14.51383 -3.0726,18.19741 -0.8044,3.68357 -1.4626,6.90657 -1.4626,7.16222 0,0.25565 2.8125,2.48088 6.25,4.94497 11.3284,8.12051 11.0031,7.64007 9.3638,13.82816 -0.7821,2.95198 -1.9151,6.63403 -2.5179,8.18234 -0.6027,1.5483 -1.0959,5.6208 -1.0959,9.05 0,3.51603 -0.5233,6.75819 -1.2,7.4349 -0.808,0.80797 -5.4633,1.20806 -14.25,1.22466 -10.2342,0.0193 -14.9919,0.5173 -22.05,2.30778 l -9,2.28311 -0.3031,4.10172 c -0.2487,3.36605 0.788,6.27825 5.7801,16.23692 3.3458,6.67435 8.7634,19.31438 12.0391,28.08894 l 5.9559,15.95376 -1.5555,14.13172 c -1.5382,13.97396 -1.6115,14.23012 -6.5675,22.94674 -2.7566,4.84826 -5.6162,9.31644 -6.3546,9.92929 -1.3548,1.12441 -18.5623,3.87327 -36.9944,5.90978 -12.4853,1.37946 -42.082,1.19074 -71.5,-0.45593 z m -67.2118,-35.33716 c 1.5135,-6.22583 0.2966,-8.77175 -4.4688,-9.34886 -4.5971,-0.55674 -5.6553,0.67727 -3.7464,4.36874 0.7849,1.51771 1.427,3.52196 1.427,4.45389 0,1.9012 4.1626,6.35953 5.1118,5.47501 0.3365,-0.31356 1.0909,-2.54051 1.6764,-4.94878 z m -5.7882,-4.68035 c 0,-0.85746 0.45,-1.2809 1,-0.94098 0.55,0.33992 1,1.04148 1,1.55902 0,0.51754 -0.45,0.94098 -1,0.94098 -0.55,0 -1,-0.70156 -1,-1.55902 z m 18.7835,-1.29157 c 1.2625,-3.78752 1.1984,-5.26874 -0.6191,-14.28779 l -2.0278,-10.06221 2.0441,-3.92162 c 1.1561,-2.21804 1.8384,-4.99763 1.5706,-6.39861 -0.6562,-3.43275 1.5336,-13.74082 3.0247,-14.23784 0.6732,-0.22441 1.2383,0.19199 1.2558,0.92533 0.018,0.73333 0.7455,2.23333 1.6178,3.33333 1.4985,1.88961 1.5523,1.77187 0.9751,-2.13324 -0.4338,-2.93474 -0.2038,-4.47115 0.7931,-5.29856 0.7723,-0.64092 1.6259,-0.80597 1.8969,-0.36676 1.6497,2.67372 3.1899,14.47447 3.2365,24.79856 0.063,13.94164 1.1665,23.68958 2.8003,24.73469 1.9512,1.24813 3.3938,0.84737 3.8986,-1.08303 0.2856,-1.09233 1.754,-2.10249 3.59,-2.46967 4.0218,-0.80436 4.7022,-3.49526 3.1248,-12.35773 -0.668,-3.75334 -1.2709,-10.51369 -1.3397,-15.023 -0.1074,-7.03058 0.1241,-8.26395 1.6248,-8.65638 1.3417,-0.35086 1.75,-1.51429 1.75,-4.98616 0,-5.4635 1.5559,-9.97342 3.2464,-9.40992 0.6788,0.22625 1.6037,2.6159 2.0554,5.31032 0.4517,2.69442 1.15,5.13339 1.5517,5.41992 1.0484,0.74785 2.8389,7.35052 4.3443,16.02096 1.2176,7.01258 1.4555,7.47846 3.6615,7.16863 1.2976,-0.18226 3.7,-1.08226 5.3386,-2 2.9576,-1.65644 2.9825,-1.74496 3.4166,-12.11852 0.3055,-7.29932 0.8817,-10.94098 1.9114,-12.07874 0.8108,-0.89587 1.4741,-2.31178 1.4741,-3.14647 0,-1.4193 1.4095,-4.94074 4.33,-10.81782 1.6474,-3.31524 4.2039,-3.66296 6.0159,-0.81825 0.8097,1.27115 2.4096,8.76086 3.5552,16.64382 2.2363,15.38762 2.461,16.16735 4.6579,16.16735 0.9952,0 1.4467,-1.16007 1.4593,-3.75 0.01,-2.0625 0.6875,-8.4584 1.5054,-14.2131 0.8178,-5.75471 1.2206,-11.8828 0.8951,-13.61798 -0.3977,-2.11979 -2.9942,-5.60442 -7.914,-10.62087 -4.0272,-4.10629 -7.4758,-8.51535 -7.6635,-9.79792 -0.231,-1.578 -1.3689,-2.68244 -3.5195,-3.41603 -4.5688,-1.5584 -4.7891,-2.09197 -2.4359,-5.89953 1.1628,-1.88135 2.1141,-4.07127 2.1141,-4.86649 0,-2.11782 8.4734,-14.40907 14.622,-21.21022 2.9298,-3.24068 7.4859,-7.34616 10.1248,-9.12329 5.8346,-3.92922 7.7595,-6.0536 6.3018,-6.95456 -0.5768,-0.35642 -1.0645,-2.30899 -1.084,-4.33903 -0.02,-2.03004 -0.6459,-4.79331 -1.392,-6.1406 -0.7462,-1.34729 -1.1303,-3.03938 -0.8537,-3.7602 0.6047,-1.5758 -3.9717,-7.81991 -6.8669,-9.36939 -1.4946,-0.7999 -2.3692,-0.80362 -3.1594,-0.0134 -2.7802,2.78021 -3.7643,-0.90635 -1.1608,-4.34849 1.9031,-2.51605 1.873,-4.55887 -0.067,-4.55887 -1.7649,0 -3.6302,1.1476 -15.8442,9.74778 -4.8837,3.43869 -9.2311,6.25219 -9.6609,6.25219 -0.4298,0 -4.1231,1.5649 -8.2073,3.47756 -4.0842,1.91266 -13.2368,5.11272 -20.3391,7.11124 -13.8874,3.90779 -17.0061,5.4112 -11.2252,5.4112 5.1722,0 30.3543,-7.50652 35.3119,-10.52611 1.1,-0.66999 4.475,-2.01752 7.5,-2.99449 9.1377,-2.95118 13.9923,-4.93843 13.9962,-5.7294 0,-0.4125 0.4547,-0.75 1.0059,-0.75 2.069,0 -14.7466,20.86489 -24.1861,30.0102 -5.3988,5.23061 -9.816,10.21929 -9.816,11.08595 0,0.86667 -1.6875,3.18385 -3.75,5.14928 -4.9505,4.71748 -8.25,9.19077 -8.25,11.18476 0,1.52261 -8.2755,7.56981 -10.3592,7.56981 -0.5322,0 -5.0566,4.1825 -10.0542,9.29444 -11.8162,12.08645 -21.5952,20.64544 -26.7204,23.38676 -2.2593,1.20842 -5.0949,3.1245 -6.3014,4.25796 -1.2066,1.13346 -2.9201,2.06084 -3.8078,2.06084 -0.8878,0 -2.3213,0.70714 -3.1856,1.57143 -1.3159,1.3159 -1.5714,1.33581 -1.5714,0.12244 0,-0.79694 -0.6224,-1.96557 -1.3832,-2.59695 -1.6634,-1.38046 -1.9818,-0.71584 -4.7022,9.81304 -2.5425,9.84012 -2.5213,13.09004 0.085,13.09004 1.1,0 2,-0.45 2,-1 0,-0.55 0.4447,-1 0.9882,-1 0.5435,0 0.881,0.7875 0.75,1.75 -0.131,0.9625 0.2118,1.75 0.7618,1.75 0.55,0 1.0412,-0.45 1.0914,-1 0.2368,-2.58914 1.7107,-6.5 2.4496,-6.5 1.2299,0 1.6977,2.81569 1.5719,9.46223 -0.1067,5.63362 -0.2507,5.96791 -2.6129,6.0654 -7.7786,0.32101 -7.8181,0.35863 -3.2618,3.10596 3.1957,1.92697 4.5296,3.52829 5.4231,6.51034 l 1.1849,3.95479 2.2909,-2.79936 c 1.2651,-1.54578 2.3071,-4.19362 2.3269,-5.91287 0.061,-5.32514 1.9827,-13.67007 3.5443,-15.39571 0.8205,-0.90654 1.4917,-3.27377 1.4917,-5.2605 0,-1.98674 0.45,-3.89036 1,-4.23028 0.55,-0.33992 1,-2.45086 1,-4.69098 0,-4.46735 3.2747,-10.80902 5.5816,-10.80902 0.7801,0 1.462,0.7875 1.5153,1.75 0.2109,3.80979 -0.3155,9.97255 -1.2173,14.25 -1.7291,8.2023 -3.6972,24.98143 -3.1676,27.00657 0.2867,1.09638 1.0508,1.99343 1.6979,1.99343 1.7873,0 12.8767,9.69946 14.3887,12.58516 1.7801,3.39739 3.2858,2.66167 4.9849,-2.43575 z m -27.5764,-11.34227 c -1.6398,-1.63984 -3.7127,0.43301 -2.8031,2.80318 0.6255,1.63 0.7794,1.6349 2.3399,0.0744 1.3047,-1.30469 1.4061,-1.93468 0.4632,-2.87754 z m 36.7929,-26.24812 c 0,-1.34254 -0.45,-2.7191 -1,-3.05902 -0.5834,-0.36058 -1,0.65628 -1,2.44098 0,1.68246 0.45,3.05902 1,3.05902 0.55,0 1,-1.09844 1,-2.44098 z m 130.6831,-5.74652 c -0.3192,-0.79773 -0.5562,-0.56078 -0.6041,0.60417 -0.043,1.05416 0.1929,1.64479 0.5252,1.3125 0.3323,-0.33229 0.3678,-1.1948 0.079,-1.91667 z m -31.6831,-8.25348 c 0,-1.34254 -0.45,-2.7191 -1,-3.05902 -0.5834,-0.36058 -1,0.65628 -1,2.44098 0,1.68246 0.45,3.05902 1,3.05902 0.55,0 1,-1.09844 1,-2.44098 z m -15.5964,-19.37257 c 0.8364,-1.6174 1.5161,-5.97504 1.5988,-10.25 0.2422,-12.51289 0.1,-13.93645 -1.3954,-13.93645 -1.7371,0 -2.607,2.17375 -2.607,6.5144 0,2.47316 -0.5241,3.51718 -2.0011,3.98594 -3.1914,1.0129 -4.3689,4.13327 -2.5434,6.73958 0.8495,1.2128 1.5445,3.64246 1.5445,5.39925 0,2.83761 0.8965,4.02816 3.2243,4.28188 0.3984,0.0434 1.3791,-1.18715 2.1793,-2.7346 z m -129.5911,-31.12395 c 0.25,-0.75 -0.125,-1.125 -0.875,-0.875 -0.7219,0.24062 -1.5094,1.02812 -1.75,1.75 -0.25,0.75 0.125,1.125 0.875,0.875 0.7219,-0.24063 1.5094,-1.02813 1.75,-1.75 z m -1.8125,-2.50348 c 0,-0.24254 -0.45,-0.7191 -1,-1.05902 -0.55,-0.33992 -1,-0.14148 -1,0.44098 0,0.58246 0.45,1.05902 1,1.05902 0.55,0 1,-0.19844 1,-0.44098 z m -11.8992,-9.74169 c 1.8696,-0.65048 3.9938,-1.77548 4.7206,-2.5 0.7268,-0.72453 2.0159,-1.31733 2.8647,-1.31733 2.3636,0 11.121,-5.05497 11.7935,-6.8075 0.4013,-1.0456 -1.397,-3.40289 -5.5045,-7.2156 l -6.1004,-5.66265 -10.1874,-1.3672 c -5.603,-0.75196 -14.2373,-1.32309 -19.1873,-1.26918 -8.1628,0.0889 -9.6977,0.43186 -16.5,3.68693 -8.7459,4.18512 -11.5319,6.28342 -12.4609,9.3852 -0.6017,2.00889 -0.3268,2.25 2.5648,2.25 1.7812,0 4.0492,0.73356 5.0399,1.63014 1.0992,0.99478 4.6378,1.91497 9.0787,2.36092 4.0026,0.40193 9.02,1.46836 11.1496,2.36986 2.1297,0.90149 5.0547,1.67197 6.5,1.71217 1.4454,0.0402 3.9779,0.90731 5.6279,1.92691 3.5802,2.21235 6.045,2.40239 10.6008,0.81733 z m 17.8108,-26.74156 c 1.1322,-0.7167 0.8353,-1.40032 -1.5,-3.45309 -1.6014,-1.40771 -3.2405,-2.5737 -3.6425,-2.59108 -1.046,-0.0452 -2.0823,4.65254 -1.3042,5.91156 0.7931,1.28331 4.5082,1.35973 6.4467,0.13261 z m -16.9116,-34.57577 c 0,-0.825 -0.45,-1.5 -1,-1.5 -0.55,0 -1,0.675 -1,1.5 0,0.825 0.45,1.5 1,1.5 0.55,0 1,-0.675 1,-1.5 z m 7.6638,-11.89181 c 1.0469,2.8415 3.1534,4.67594 4.6916,4.08567 2.693,-1.0334 1.8778,-4.71054 -1.789,-8.06914 -3.6981,-3.38738 -5.5476,-7.1667 -5.5982,-11.43982 -0.03,-2.57674 -0.091,-2.60671 -1.5,-0.74377 -0.8075,1.06762 -1.4682,3.13012 -1.4682,4.58333 0,1.45322 -0.3084,2.95061 -0.6853,3.32754 -1.2162,1.21613 -3.1739,7.84279 -2.7377,9.26683 1.4999,4.89732 1.3355,4.85538 5.0828,1.29633 1.9819,-1.88235 3.779,-2.91777 4.004,-2.30697 z m 157.2497,-30.80519 c 3.3439,-4.54706 3.8987,-6.803 1.673,-6.803 -1.5833,0 -7.5865,7.67329 -7.5865,9.697 0,2.61911 2.9044,1.19773 5.9135,-2.894 z m -63.1202,-33.84368 c 1.2873,-2.06127 0.8787,-3.95932 -0.8523,-3.95932 -0.5176,0 -0.941,0.72748 -0.941,1.61663 0,1.1243 -0.6091,1.45735 -2,1.09362 -2.4651,-0.64464 -2.6311,0.82278 -0.25,2.20965 2.4067,1.40176 2.5961,1.35675 4.0433,-0.96058 z m -132.2933,-3.95932 c 1.0769,-1.7424 -0.5193,-3.22888 -2.078,-1.93525 -0.77,0.63902 -1.1534,1.56088 -0.852,2.04856 0.7295,1.18032 2.1648,1.12481 2.93,-0.11331 z m 150.5,-6 c -2.8552,-2.23337 -3.6312,-2.40581 -4.5,-1 -1.0819,1.75051 0.5173,3.0007 3.809,2.97776 l 3.191,-0.0222 -2.5,-1.95553 z m -19.6753,-20.65799 c 0.757,-0.75703 -1.1358,-3.34201 -2.4471,-3.34201 -0.4827,0 -0.8776,0.9 -0.8776,2 0,1.92166 1.9556,2.71105 3.3247,1.34201 z m -99.3247,52.59897 c 0,-0.58246 0.45,-0.7809 1,-0.44098 0.55,0.33992 1,0.81648 1,1.05902 0,0.24254 -0.45,0.44098 -1,0.44098 -0.55,0 -1,-0.47656 -1,-1.05902 z m 71.2,-7.14098 c -0.66,-0.66 -1.2,-2.08844 -1.2,-3.17431 0,-1.87251 0.1273,-1.8547 2.4692,0.34536 1.358,1.27582 2.2315,2.70426 1.941,3.17431 -0.7312,1.18307 -1.7964,1.06848 -3.2102,-0.34536 z m -101.5061,-11.43948 c -0.799,-0.79893 0.1041,-2.36052 1.3651,-2.36052 0.5176,0 0.941,0.675 0.941,1.5 0,1.54641 -1.18,1.9867 -2.3061,0.86052 z m 15.3061,-32.36052 c 1.9584,-1.2656 3.2822,-1.2656 2.5,0 -0.3399,0.55 -1.379,0.99311 -2.309,0.98469 -1.4573,-0.0132 -1.4837,-0.14929 -0.191,-0.98469 z m 6.5,-2 c -0.3843,-1.21073 -0.2487,-2.65133 0.3013,-3.20133 0.6667,-0.66666 1.2329,-0.26622 1.6987,1.20133 0.3843,1.21073 0.2487,2.65133 -0.3013,3.20133 -0.6667,0.66666 -1.2329,0.26622 -1.6987,-1.20133 z"
             style="fill:#97a1a8" />
          <path
             id="path66043"
             d="m -2000.8572,-341.26522 c -32.1764,-1.33292 -59.2815,-4.45974 -89,-10.26699 l -27.5,-5.37373 -7.5,-5.02563 c -9.9513,-6.66824 -16.2187,-12.33008 -18.1823,-16.42571 -4.3738,-9.12241 -4.2798,-8.65965 -2.5114,-12.36799 1.6702,-3.50252 4.6937,-4.7805 4.6937,-1.98396 0,2.17034 4.2485,1.879 7.2711,-0.49862 1.8587,-1.46206 2.7255,-3.34088 3.2285,-6.99841 0.3782,-2.74988 1.7964,-6.63359 3.1515,-8.63046 1.3551,-1.99686 2.2444,-4.2024 1.9763,-4.9012 -0.2682,-0.69879 0.8259,-5.47821 2.4313,-10.62092 3.2802,-10.50751 3.3933,-11.16772 1.8232,-10.64437 -0.6149,0.20497 -2.366,3.72997 -3.8913,7.83333 -4.0761,10.9655 -5.9125,14.96065 -6.8769,14.96065 -1.3023,0 -14.2422,-13.9111 -19.1604,-20.59847 -2.3871,-3.24584 -5.3351,-7.02653 -6.5512,-8.40153 -1.216,-1.375 -5.8983,-8.575 -10.4052,-16 -4.5069,-7.425 -9.0499,-14.429 -10.0956,-15.56445 -1.714,-1.86112 -1.9013,-3.75132 -1.9013,-19.19098 0,-16.72169 0.9687,-21.93777 2.7913,-15.03021 0.7805,2.95812 1.1879,3.25369 4.0867,2.96512 2.9981,-0.29845 3.1992,-0.12632 2.9209,2.5 -0.243,2.29273 0.1327,2.8817 2.0076,3.14748 1.2686,0.17982 2.8033,1.41732 3.4105,2.75 1.268,2.78301 2.581,3.113 3.4435,0.86544 0.4738,-1.23474 1.1843,-0.87202 3.428,1.75 2.0528,2.39904 2.8414,2.84311 2.8709,1.61662 0.064,-2.65032 1.9738,-3.17943 4.2012,-1.16372 1.1189,1.01267 3.0031,1.71484 4.1869,1.56038 1.4457,-0.18863 2.4808,0.46836 3.1525,2.0009 1.445,3.29703 4.2858,3.48712 5.4723,0.36618 0.538,-1.41502 1.4393,-2.57276 2.0029,-2.57276 1.4955,0 1.2524,1.56625 -0.4642,2.99086 -2.095,1.73869 -1.0656,2.80656 2.7369,2.83932 7.2203,0.0622 8.5552,1.49294 5.0372,5.39897 -1.6524,1.83465 -1.6991,1.7898 3.4876,3.3441 0.7,0.20976 2.1625,-0.50841 3.25,-1.59593 1.4852,-1.48521 3.3314,-1.97732 7.4183,-1.97732 2.9925,0 5.7191,-0.45 6.059,-1 0.3399,-0.55 2.9784,-1 5.8632,-1 4.1101,0 6.2689,-0.64922 9.9757,-3 2.6018,-1.65 5.5289,-3 6.5047,-3 0.9758,0 2.6039,-0.60673 3.618,-1.3483 2.4366,-1.78162 1.0569,-3.99865 -2.0094,-3.22906 -2.4189,0.60711 -4.25,-0.81157 -2.4685,-1.91256 1.6434,-1.0157 1.1845,-2.08211 -1.5187,-3.52879 -1.4101,-0.75466 -2.3099,-1.94298 -2.0279,-2.67796 0.2789,-0.7267 -0.3804,-1.87549 -1.465,-2.55285 -1.0847,-0.67737 -1.9721,-1.6941 -1.9721,-2.25941 0,-0.56531 -1.0754,-1.69456 -2.3898,-2.50945 -1.3144,-0.81489 -4.0114,-3.61912 -5.9934,-6.23162 -2.9248,-3.85521 -3.27,-4.75 -1.8327,-4.75 0.974,0 2.8089,-0.72708 4.0777,-1.61573 1.6973,-1.18888 2.6015,-1.32097 3.4225,-0.5 0.6136,0.61365 1.9257,1.11573 2.9157,1.11573 0.99,0 1.8,0.41278 1.8,0.91729 0,0.50451 2.0288,1.69208 4.5083,2.63904 3.5202,1.34438 5.7669,1.54689 10.25,0.92395 3.1579,-0.43879 8.6361,-0.70934 12.1736,-0.60121 9.0485,0.27658 14.8943,-1.33184 43.7567,-12.03929 3.4038,-1.26273 6.5344,-1.95008 6.9571,-1.52744 2.2131,2.21314 -14.2326,21.93162 -25.3879,30.44022 -1.7918,1.36665 -3.2727,2.99391 -3.2908,3.61613 -0.032,1.0835 -7.4341,8.16631 -13.217,12.64613 -2.7012,2.09254 -3.7166,4.98518 -1.75,4.98518 1.8614,0 1.014,1.6726 -1.4062,2.77531 -1.3234,0.60299 -4.9341,4.26456 -8.0237,8.13682 -3.0896,3.87227 -8.7388,9.53095 -12.5538,12.57485 -3.815,3.0439 -8.0747,6.58944 -9.4661,7.87896 -1.3915,1.28953 -5.185,3.75972 -8.43,5.48933 -4.7018,2.50602 -7.1005,3.14473 -11.8102,3.14473 -5.9903,0 -8.5592,1.18711 -7.6569,3.53832 0.2732,0.71204 -1.4101,9.3197 -3.7406,19.12814 -2.3306,9.80845 -4.4355,19.75654 -4.6775,22.10688 -0.5551,5.38991 0.4368,9.56659 2.1186,8.92123 1.8734,-0.7189 5.3034,2.40895 6.0249,5.49414 0.8907,3.80839 -0.6918,4.24371 -2.7516,0.75691 -1.6266,-2.75364 -3.6269,-3.94256 -3.6269,-2.15572 0,0.43445 0.6189,3.24695 1.3754,6.25 0.7565,3.00306 1.665,6.6976 2.0191,8.2101 0.3628,1.5501 1.3245,2.75 2.204,2.75 1.1941,0 1.4139,-0.66686 0.9365,-2.84066 -0.6918,-3.1497 0.4883,-4.6316 4.4706,-5.61376 2.2818,-0.56278 2.7074,-0.10129 4.9944,5.4153 1.375,3.31677 2.8727,6.03244 3.3283,6.03481 0.4556,0.002 0.6806,-6.40819 0.5,-14.24569 -0.32,-13.88913 -0.2754,-14.25 1.7601,-14.25 3.9626,0 5.4116,-2.30873 5.4116,-8.62244 0,-5.41511 -1.123,-7.63804 -2.3377,-4.62756 -0.2774,0.6875 -0.5399,-0.38261 -0.5834,-2.37803 -0.057,-2.62784 0.4973,-4.01058 2.011,-5.01567 1.7337,-1.15114 2.3108,-3.19199 3.3858,-11.9743 1.2727,-10.39755 2.6466,-14.882 4.5595,-14.882 1.4896,0 1.1512,5.76308 -0.9449,16.0907 -1.0503,5.17512 -2.4335,15.32685 -3.0736,22.55941 -1.2567,14.19938 -0.581,18.46451 4.1339,26.09353 1.6837,2.72429 2.3124,3.07891 3.927,2.21481 1.0573,-0.56585 1.9224,-1.93533 1.9224,-3.04329 0,-2.2961 2.6842,-7.9185 3.7757,-7.90857 0.3984,0.004 2.0743,0.90066 3.7243,1.99341 1.65,1.09275 3.3056,1.98979 3.679,1.99341 0.3735,0.004 1.4075,-2.49907 2.2978,-5.56155 1.5019,-5.16658 1.4953,-6.19427 -0.093,-14.25 -2.0692,-10.49633 -2.0671,-12.76954 0.014,-15.06898 1.0978,-1.2131 1.6021,-3.67437 1.6021,-7.81918 0,-4.04653 0.477,-6.44466 1.441,-7.24466 1.1953,-0.99204 1.5297,-0.62942 1.9618,2.12755 0.7364,4.69801 1.5167,10.48583 2.223,16.48729 0.4473,3.80173 1.0802,5.28748 2.3993,5.63242 1.3752,0.35963 2.0789,2.24929 3.0276,8.13053 0.9228,5.71988 1.7628,8.03095 3.3142,9.11758 3.2724,2.29211 5.6331,1.85442 5.6331,-1.04441 0,-1.96567 0.5082,-2.5 2.3776,-2.5 4.1447,0 4.925,-2.14539 4.2736,-11.74986 -0.3264,-4.81258 -0.881,-11.26403 -1.2326,-14.33657 -0.4771,-4.1699 -0.2308,-6.37601 0.9711,-8.70034 0.8857,-1.71265 1.6164,-4.82376 1.624,-6.91357 0.017,-4.69181 0.931,-8.29966 2.1029,-8.29966 0.4859,0 0.8933,1.6875 0.9054,3.75 0.012,2.0625 0.912,5.71164 2,8.1092 2.1826,4.81018 2.5019,7.1408 0.978,7.1408 -0.55,0 -1,0.85 -1,1.88889 0,1.17203 0.6513,1.83618 1.7161,1.75 1.3216,-0.10696 1.9109,1.04913 2.5631,5.02833 0.5034,3.07101 1.4594,5.40223 2.3566,5.74652 0.8303,0.31861 3.8394,-0.36114 6.6869,-1.51057 2.8475,-1.14943 6.2788,-2.52878 7.6251,-3.06522 1.407,-0.56061 2.0031,-1.26507 1.4019,-1.65666 -0.5753,-0.37471 -1.3347,-4.50629 -1.6875,-9.18129 -0.5834,-7.7301 -0.4617,-8.636 1.3443,-10.00144 1.4713,-1.11238 2.2265,-3.41712 2.9142,-8.89432 0.8349,-6.64915 1.9803,-9.04187 4.3507,-9.08893 1.4499,-0.0288 2.6463,4.48387 4.238,15.98469 1.9998,14.44955 3.1789,18.94315 5.171,19.70759 2.106,0.80815 5.1245,-3.27711 4.569,-6.18355 -0.2366,-1.23725 0.5193,-4.11056 1.6797,-6.38512 1.3806,-2.70612 1.8893,-5.01421 1.4718,-6.67754 -0.4315,-1.71949 -0.075,-3.164 1.1019,-4.46443 1.0086,-1.11454 1.4694,-2.62708 1.0964,-3.59911 -0.9188,-2.39436 1.4263,-7.08843 4.1646,-8.3361 2.9771,-1.35643 5.2362,-1.35761 5.2362,-0.003 0,0.58246 0.45,0.7809 1,0.44098 0.55,-0.33992 1,-1.87173 1,-3.40403 0,-1.5323 0.9004,-3.60081 2.0008,-4.5967 1.7328,-1.56812 1.9295,-2.67735 1.4685,-8.2796 -0.2928,-3.55788 -0.9681,-7.28323 -1.5008,-8.27854 -0.5327,-0.99502 -0.9685,-2.68385 -0.9685,-3.75266 0,-1.06882 -0.6449,-2.47851 -1.4331,-3.13266 -1.9265,-1.59889 -5.5669,1.9614 -5.5669,5.44447 0,2.98561 -2.9599,6.20084 -6.5342,7.09794 -1.5155,0.38038 -2.3845,1.17155 -2.1003,1.91225 0.3215,0.83764 -0.164,1.09377 -1.4403,0.75999 -1.4264,-0.37299 -1.9252,0.0148 -1.9252,1.49656 0,1.15899 0.841,2.21992 2,2.52301 3.5192,0.92028 2.3627,2.94883 -1.2311,2.15949 -2.051,-0.45048 -5.4636,-2.9447 -9.3441,-6.82945 -3.3621,-3.36588 -6.888,-6.56979 -7.8352,-7.11979 -4.204,-2.44097 4.2267,-19.20939 15.4009,-30.63203 6.8136,-6.96508 18.5548,-14.19086 21.7595,-13.39126 3.2051,0.79969 2.809,-0.33143 -1.7384,-4.96493 -3.1262,-3.1853 -4.1296,-5.09317 -4.641,-8.82454 -0.525,-3.83023 -0.3212,-5.0029 1.0429,-6.00031 1.0283,-0.75192 1.4422,-1.89936 1.052,-2.91625 -0.5222,-1.36095 -0.9926,-1.45846 -2.4985,-0.518 -1.4936,0.93279 -2.2508,0.80049 -3.8855,-0.67895 -1.1168,-1.01062 -2.2973,-2.67815 -2.6234,-3.70561 -0.3261,-1.02747 -1.29,-1.86812 -2.1421,-1.86812 -1.062,0 -1.3831,-0.63526 -1.021,-2.02002 0.3909,-1.49466 -0.2121,-2.40284 -2.3181,-3.49193 -3.6077,-1.86563 -4.3454,-1.54598 -16.4999,7.15029 -12.0825,8.64476 -25.9794,14.87738 -44.5064,19.96071 -21.5248,5.90583 -34.5371,4.8954 -42.6263,-3.31004 -2.3256,-2.35895 -5.1386,-4.28901 -6.2511,-4.28901 -1.1126,0 -2.4605,-0.8178 -2.9954,-1.81733 -1.5207,-2.84145 -1.1731,-18.70944 0.457,-20.85993 0.7599,-1.00251 1.3993,-3.17274 1.421,-4.82274 0.022,-1.65 0.9326,-5.925 2.0242,-9.5 1.0916,-3.575 1.9882,-7.33213 1.9924,-8.34919 0.01,-2.23917 8.641,-10.89536 13.2127,-13.25013 1.8122,-0.93341 4.7197,-2.78006 6.4611,-4.10367 5.0385,-3.82969 16.2663,-9.12743 18.2466,-8.60956 1.0683,0.27936 2.9721,-0.60302 4.6439,-2.15238 2.4581,-2.27813 3.6007,-2.59814 8.6286,-2.4167 4.0606,0.14653 6.3221,-0.2563 7.555,-1.34575 0.9678,-0.85519 3.7847,-1.88113 6.2597,-2.27988 2.475,-0.39875 5.1936,-1.0883 6.0412,-1.53233 0.8477,-0.44403 4.4477,-1.09058 8,-1.43678 17.2662,-1.68269 17.3572,-1.70932 18.559,-5.4275 0.6051,-1.87213 1.9551,-4.029 3,-4.79305 1.0449,-0.76405 1.8998,-1.7823 1.8998,-2.26279 0,-0.4805 0.3375,-1.21112 0.75,-1.62362 0.4125,-0.4125 0.7529,-0.1125 0.7563,0.66666 0,0.77917 1.3535,2.18324 3,3.12016 2.9584,1.68338 2.9937,1.6758 2.9937,-0.64301 0,-1.29058 -0.6712,-2.60408 -1.4917,-2.91891 -0.8204,-0.31482 -1.4811,-1.60046 -1.4683,-2.85699 0.043,-4.23471 -1.2808,-8.93974 -2.6652,-9.47098 -0.7874,-0.30216 -1.3748,-1.95721 -1.3748,-3.87354 0,-4.32297 -1.8119,-8.24558 -4.1518,-8.98823 -2.0398,-0.64741 -2.3623,-2.62265 -0.8804,-5.39171 0.7244,-1.35352 0.4979,-2.23368 -0.9005,-3.49922 -1.7645,-1.59689 -1.9924,-1.56221 -4.1007,0.62414 l -2.2324,2.31496 0.6433,-3.42708 c 0.83,-4.42143 1.1102,-4.6318 3.8413,-2.88362 3.5527,2.27413 6.277,3.12658 5.0608,1.58359 -0.5518,-0.70009 -1.2863,-3.44258 -1.6321,-6.09442 -0.5515,-4.22828 -0.4147,-4.7809 1.1118,-4.49132 1.2749,0.24185 1.8994,1.66588 2.3336,5.32153 0.6104,5.13904 0.8191,5.43013 1.4277,1.99132 1.8288,-10.33355 1.8336,-10.25179 -0.653,-11.06246 -1.3022,-0.42454 -4.1676,-0.67006 -6.3676,-0.54558 -5.6651,0.32052 -11.2116,-4.91421 -6.9425,-6.55239 0.8972,-0.34432 1.3094,-1.24406 0.9723,-2.1226 -0.5122,-1.33482 0.8469,-1.44315 10.9018,-0.86887 14.7656,0.84332 37.1141,4.09225 46.0684,6.69721 3.85,1.12003 12.9053,4.08183 20.1228,6.58178 12.2215,4.23316 13.8699,5.12519 24,12.98683 l 10.8772,8.44147 6.1313,12.2223 6.1312,12.22231 1.1877,13 c 1.0348,11.32622 1.6209,13.90127 4.552,20 5.7662,11.9975 6.0539,18.76839 1.9124,45 -3.5126,22.24817 -6.0725,37.17907 -7.0635,41.19833 -0.4556,1.84809 0.8984,3.25873 8.4991,8.85418 l 9.0411,6.65586 -2.5506,6.64581 c -1.5188,3.95715 -2.8117,9.88235 -3.1957,14.64582 l -0.645,8 -15,0.56247 c -9.6293,0.36108 -17.3189,1.19751 -21.4766,2.3361 -9.5389,2.61225 -10.0234,2.99806 -10.0234,7.98242 0,3.31085 1.4,7.02778 6.0363,16.02609 3.32,6.44351 8.7137,18.8872 11.986,27.65264 l 5.9497,15.93717 -1.5623,14.25155 c -1.5507,14.14565 -1.5998,14.31715 -6.6043,23.07688 -2.8013,4.90336 -5.9892,9.20945 -7.1737,9.6897 -1.1724,0.47541 -11.8067,2.24838 -23.6317,3.93994 -23.0009,3.29027 -30.3336,3.50796 -67,1.98905 z m 9,-69.94401 c 0,-0.55 -0.1984,-1 -0.441,-1 -0.2425,0 -0.7191,0.45 -1.059,1 -0.3399,0.55 -0.1415,1 0.441,1 0.5824,0 1.059,-0.45 1.059,-1 z m 30.3322,-19.33916 c -0.1477,-7.63325 -0.511,-9.22693 -3.0419,-13.34528 -2.8306,-4.60601 -5.2903,-6.60833 -5.2903,-4.30662 0,0.64658 0.9,2.31977 2,3.71819 1.2429,1.58006 2,4.05678 2,6.54243 0,6.20192 2.2174,16.8249 3.4273,16.41929 0.6713,-0.22502 1.0099,-3.60359 0.9049,-9.02801 z m 32.6678,4.09837 c 0,-2.93613 -2.8926,-7.75921 -4.6535,-7.75921 -1.3051,0 -1.4853,0.73068 -0.9719,3.94129 0.3467,2.16771 1.1128,5.20521 1.7025,6.75 1.0344,2.70937 1.1227,2.74005 2.4976,0.86758 0.7839,-1.06762 1.4253,-2.77747 1.4253,-3.79966 z m -54.4729,-3.80301 c 0.6936,-1.12239 -1.2042,-3.9562 -2.6495,-3.9562 -1.0247,0 -1.188,3.35626 -0.2109,4.33333 0.9695,0.9695 2.122,0.81754 2.8604,-0.37713 z m 22.093,-160.2062 c 1.4549,-2.3375 6.4105,-7.94748 11.0126,-12.46662 4.602,-4.51914 8.3673,-8.91777 8.3673,-9.77475 0,-0.85697 -1.0125,-1.99592 -2.25,-2.53099 -1.2375,-0.53508 -2.9563,-1.48293 -3.8196,-2.10635 -1.2603,-0.91011 -2.507,-0.41793 -6.3266,2.49762 -2.6163,1.9971 -5.1725,3.63109 -5.6804,3.63109 -0.5079,0 -0.9234,0.63235 -0.9234,1.40523 0,0.77288 -2.025,4.68969 -4.5,8.70402 -4.767,7.7319 -5.642,12.12619 -2.75,13.81065 2.9958,1.7449 4.1396,1.21714 6.8701,-3.1699 z m -28.6201,-26.75 c 0,-0.55 -0.45,-1 -1,-1 -0.55,0 -1,0.45 -1,1 0,0.55 0.45,1 1,1 0.55,0 1,-0.45 1,-1 z m 3.7964,-10.75 c -0.044,-0.9625 0.097,-2.41432 0.3122,-3.22626 0.2441,-0.9209 -0.455,-1.6054 -1.8586,-1.81955 -2.4859,-0.37928 -2.7253,0.41538 -1.2748,4.23071 1.1094,2.91787 2.9404,3.44689 2.8212,0.8151 z m 35.2036,-1.25 c 0,-0.55 -0.9,-1 -2,-1 -1.1,0 -2,0.45 -2,1 0,0.55 0.9,1 2,1 1.1,0 2,-0.45 2,-1 z m -25,-32.46862 c 0,-0.89459 -0.5863,-1.24363 -1.5,-0.89301 -0.825,0.31659 -1.5,0.97746 -1.5,1.46862 0,0.49116 0.675,0.89301 1.5,0.89301 0.825,0 1.5,-0.66088 1.5,-1.46862 z m -12.6384,-11.03138 c 0.3166,-0.825 0.1397,-1.5 -0.393,-1.5 -0.5327,0 -0.9686,0.675 -0.9686,1.5 0,0.825 0.1769,1.5 0.393,1.5 0.2162,0 0.652,-0.675 0.9686,-1.5 z m -71.8138,262.25 c -0.419,-0.9625 -0.419,-2.5375 0,-3.5 0.7254,-1.66667 0.7817,-1.66667 1.1803,0 0.2302,0.9625 0.2302,2.5375 0,3.5 -0.3986,1.66667 -0.4549,1.66667 -1.1803,0 z m 0.1029,-7.21797 c -0.3099,-0.80739 -0.133,-1.73395 0.393,-2.05902 0.5259,-0.32508 0.9563,0.33551 0.9563,1.46797 0,2.41457 -0.5561,2.65816 -1.3493,0.59105 z m -98.1507,-81.53203 c -0.3399,-0.55 0.3085,-1 1.441,-1 1.1324,0 2.059,0.45 2.059,1 0,0.55 -0.6484,1 -1.441,1 -0.7925,0 -1.7191,-0.45 -2.059,-1 z m -12.9999,-17.99987 c -0.7135,-1.15444 0.1315,-20.33803 1.1892,-27.00013 l 0.7145,-4.5 0.8501,4.5 c 0.9802,5.1889 1.0001,6.77019 0.166,13.1702 -0.3475,2.6667 -0.1522,5.45518 0.4553,6.5 0.9394,1.61548 1.0675,1.5077 1.0944,-0.9202 0.03,-2.67673 1.9157,-3.99533 2.1456,-1.5 0.2712,2.94408 -0.4273,5.25317 -2.3937,7.91282 -2.2305,3.01691 -3.2249,3.44971 -4.2214,1.83731 z m 8.4999,-4.42928 c 0,-1.31697 8.1367,-7.57085 9.8501,-7.57085 0.4125,0 1.2724,-0.52254 1.9111,-1.1612 1.0551,-1.05509 10.029,-1.22083 17.2388,-0.31839 1.375,0.17211 2.8688,0.35042 3.3196,0.39626 0.4507,0.0458 0.6757,1.09583 0.5,2.33333 -0.3084,2.17097 -0.7089,2.25388 -11.4032,2.36035 -10.0668,0.10023 -11.4969,0.35254 -15.5879,2.75 -5.1819,3.03683 -5.8285,3.17111 -5.8285,1.2105 z m 6.0789,-15.15418 c 0.048,-1.16495 0.285,-1.4019 0.6042,-0.60417 0.2889,0.72187 0.2534,1.58437 -0.079,1.91667 -0.3323,0.33229 -0.5687,-0.25834 -0.5253,-1.3125 z m 6.504,-1.28246 c -0.4307,-0.697 -0.5131,-1.53733 -0.183,-1.86741 0.8949,-0.89496 1.8707,0.4213 1.3874,1.87145 -0.3388,1.01617 -0.5743,1.01538 -1.2044,-0.004 z m 0.7991,-5.32519 c -0.4049,-0.65504 -0.2064,-1.36754 0.4409,-1.58334 1.6768,-0.55892 1.4577,-3.18078 -0.3229,-3.86405 -0.825,-0.31659 -1.5,-1.14758 -1.5,-1.84665 0,-0.69907 -0.9275,-1.88842 -2.0611,-2.64301 -1.1336,-0.75458 -2.8879,-3.84697 -3.8985,-6.87197 -1.6734,-5.00912 -1.6955,-5.61156 -0.2478,-6.75 0.8743,-0.6875 2.6031,-1.25 3.8418,-1.25 1.2387,0 2.9332,-0.97228 3.7655,-2.16062 1.4308,-2.04269 7.2844,-3.75566 6.0591,-1.77308 -0.3174,0.51353 -1.2255,0.9337 -2.018,0.9337 -0.7926,0 -1.441,0.61638 -1.441,1.36973 0,2.20828 3.9679,13.9914 4.9118,14.58619 0.4749,0.29924 1.566,2.23158 2.4248,4.29408 0.8587,2.0625 2.0343,3.75 2.6124,3.75 0.578,0 1.051,0.45 1.051,1 0,1.54285 -3.6037,1.18248 -5,-0.5 -1.9602,-2.36186 -4.074,-1.7643 -5.3061,1.5 -1.2121,3.21127 -2.1341,3.71484 -3.3119,1.80902 z m 16.118,-5.80902 c -0.3399,-0.55 0.083,-1 0.941,-1 0.8574,0 1.559,0.45 1.559,1 0,0.55 -0.4234,1 -0.941,1 -0.5175,0 -1.2191,-0.45 -1.559,-1 z m -9.3189,-27.25494 c 0.3466,-2.43972 2.1348,-2.72913 2.618,-0.42371 0.1645,0.78485 -0.429,1.70639 -1.3189,2.04788 -1.2392,0.47553 -1.5434,0.0953 -1.2991,-1.62417 z m 9.8189,-2.74506 c 0,-0.55 0.45,-1 1,-1 0.55,0 1,0.45 1,1 0,0.55 -0.45,1 -1,1 -0.55,0 -1,-0.45 -1,-1 z m -30.0767,-4.16104 c -1.1236,-2.38643 -3.1704,-5.91165 -4.5485,-7.83382 -1.9933,-2.78036 -2.3759,-4.21147 -1.8716,-7 0.6151,-3.40072 3.754,-6.93765 6.1971,-6.9829 0.6602,-0.0122 1.6039,-0.74347 2.0973,-1.62498 1.2327,-2.20272 4.0967,-1.42519 6.4698,1.75645 1.8858,2.52834 1.9053,2.90628 0.4133,8 -0.8613,2.94046 -2.1667,8.01291 -2.9008,11.27212 -0.7342,3.2592 -1.8926,6.11173 -2.5743,6.33896 -0.6952,0.23175 -2.1363,-1.49182 -3.2823,-3.92583 z m 1.8963,-10.08896 c -0.1758,-1.2375 -0.9946,-2.25 -1.8196,-2.25 -0.825,0 -1.6438,1.0125 -1.8196,2.25 -0.2459,1.73169 0.1733,2.25 1.8196,2.25 1.6463,0 2.0655,-0.51831 1.8196,-2.25 z m 30.1804,0.40499 c 0,-0.46476 0.9275,-1.68437 2.061,-2.71024 1.7073,-1.54503 2.209,-1.62591 2.9227,-0.47116 0.6094,0.98609 0.1191,1.77923 -1.6754,2.71023 -2.982,1.5471 -3.3083,1.59357 -3.3083,0.47117 z m -36,-40.50897 c 0,-2.17415 0.8626,-4.28477 2.4523,-6 4.0887,-4.41179 4.7473,-2.98446 1.5477,3.35398 -1.6658,3.3 -3.2473,6 -3.5144,6 -0.2671,0 -0.4856,-1.50929 -0.4856,-3.35398 z m 156.8195,-35.89602 c -0.209,-1.47182 -1.1241,-2.36398 -2.646,-2.57957 -1.5943,-0.22586 -2.145,-0.80231 -1.75,-1.83179 0.3171,-0.82622 0.5765,-2.36541 0.5765,-3.42043 0,-3.33459 6.0965,-1.54266 9.3283,2.74185 1.6231,2.15176 1.6292,2.47516 0.091,4.82317 -2.0779,3.17132 -5.166,3.31844 -5.5994,0.26677 z m -43.3195,-21.79601 c 2.75,-0.42833 6.575,-0.76645 8.5,-0.75139 l 3.5,0.0274 -4,0.82737 c -2.2,0.45505 -6.025,0.79318 -8.5,0.75139 l -4.5,-0.076 5,-0.77878 z"
             style="fill:#798592" />
          <path
             id="path66041"
             d="m -1996.3572,-341.23229 c -31.7961,-1.10072 -61.6197,-4.48818 -93.4034,-10.60906 -20.7426,-3.9946 -29.1038,-6.00859 -31,-7.46714 -1.4281,-1.09848 -6.0036,-4.42262 -10.1676,-7.38699 -7.3834,-5.25617 -12.929,-11.54938 -12.929,-14.67198 0,-0.8529 1.6155,-3.07871 3.5899,-4.94625 8.9078,-8.42533 10.2868,-10.20653 10.9524,-14.14612 0.3724,-2.20369 1.6031,-5.5764 2.735,-7.4949 1.132,-1.9185 2.1468,-4.67311 2.2552,-6.12134 0.4966,-6.63416 5.0148,-20.531 6.3973,-19.67656 0.5449,0.33676 0.085,3.58808 -1.1047,7.81017 -2.4764,8.7883 -5.3989,21.95599 -6.821,30.73323 -0.9683,5.97553 -0.789,7.54894 2.2213,19.5 2.825,11.21504 3.5479,13 5.2648,13 1.4291,0 2.1366,-0.84567 2.5098,-3 0.4142,-2.39106 1.0251,-3 3.0098,-3 1.9528,0 3.0298,1.0245 4.9902,4.74685 1.375,2.61076 2.95,4.58998 3.5,4.39825 0.6125,-0.2135 0.8241,-3.79706 0.5461,-9.24685 -0.9398,-18.42226 -0.89,-18.85866 2.193,-19.21362 4.4114,-0.50792 5.7533,-3.54115 5.8205,-13.15714 0.033,-4.69012 0.4944,-10.77749 1.0258,-13.52749 0.5313,-2.75 1.3089,-8.0319 1.7279,-11.73756 0.9664,-8.54707 3.1867,-11.47741 3.1867,-4.20584 0,2.72613 -0.4593,6.52863 -1.0207,8.45 -1.6229,5.55398 -3.9624,24.82196 -3.9712,32.70589 -0.01,7.2017 2.293,15.50383 5.4404,19.62821 2.0837,2.73056 5.2058,1.31545 5.9593,-2.70106 0.3397,-1.8107 1.207,-4.09822 1.9274,-5.08338 1.2399,-1.69563 1.4841,-1.70104 4.5775,-0.10138 1.7973,0.9294 3.8634,1.46127 4.5914,1.18191 1.7551,-0.6735 3.8886,-10.45553 3.215,-14.74077 -0.2936,-1.86781 -1.1135,-6.4134 -1.8219,-10.10131 -1.1458,-5.96464 -1.1071,-6.90527 0.3505,-8.51587 1.0276,-1.13548 1.7529,-4.01245 1.9454,-7.71571 0.1688,-3.24782 0.8104,-6.07102 1.4259,-6.27378 1.0978,-0.36172 1.7479,3.06562 3.0515,16.08811 0.4569,4.56404 0.9989,5.98484 2.4258,6.35797 1.0106,0.26428 2.0523,1.21942 2.3148,2.12254 0.423,1.45507 2.5889,13.0197 2.5889,13.82332 0,0.67652 9.9271,5.05829 10.3964,4.58895 0.2747,-0.27471 -0.1909,-1.55311 -1.0346,-2.84088 -1.8554,-2.83169 -1.0756,-4.42936 2.162,-4.42936 4.3203,0 4.842,-2.79151 3.447,-18.44548 -0.9511,-10.6729 -0.9794,-14.66986 -0.1156,-16.28392 0.6296,-1.17651 1.1509,-3.4062 1.1584,-4.95486 0.019,-4.027 1.0651,-7.38516 2.1001,-6.74548 0.4875,0.30128 0.8863,1.66414 0.8863,3.0286 0,1.36445 0.8567,4.16003 1.9037,6.21241 1.6604,3.25463 1.7243,3.97697 0.5,5.65129 -1.9527,2.67052 -1.7514,4.53744 0.4893,4.53744 2.1249,0 3.107,1.85915 3.107,5.88179 0,3.0255 1.6072,5.11821 3.9307,5.11821 0.8418,0 4.0143,-0.95536 7.05,-2.12303 3.0356,-1.16766 6.5874,-2.53333 7.8928,-3.03482 2.2117,-0.84964 2.2628,-1.03406 0.75,-2.70571 -2.2554,-2.49213 -2.3598,-16.13644 -0.1235,-16.13644 1.1415,0 1.5026,-1.25489 1.511,-5.25 0.023,-10.73007 2.127,-16.012 5.1681,-12.97093 0.5745,0.57454 1.707,5.69679 2.5166,11.38278 2.9678,20.84333 3.3982,22.4158 6.3967,23.36747 2.1949,0.69662 2.4629,2.48535 0.6576,4.38825 -0.6875,0.72467 0.6454,0.0272 2.9621,-1.55 4.7398,-3.22688 5.2918,-4.36757 2.1136,-4.36757 l -2.1743,0 2.0253,-2.25 c 1.1139,-1.2375 2.3212,-2.925 2.6829,-3.75 0.693,-1.58078 3.5916,-6.46964 6.1584,-10.3872 1.3673,-2.08668 1.3678,-2.46272 0,-3.5941 -1.9555,-1.62285 -1.9696,-5.63318 -0.023,-6.38033 0.8251,-0.31658 1.5,-1.4427 1.5,-2.50248 0,-2.07252 7.2873,-6.37215 9.3571,-5.52091 2.9408,1.20938 4.7741,5.76171 5.6912,14.13227 1.5383,14.03953 3.1597,23.25275 4.0922,23.25275 0.4763,0 0.8373,-2.5875 0.8022,-5.75 -0.035,-3.1625 -0.055,-9.92227 -0.045,-15.02172 0.017,-8.34429 -0.258,-9.74259 -2.7472,-13.97913 -2.0806,-3.5413 -3.6185,-4.9404 -6.208,-5.64793 -4.4796,-1.22396 -4.3631,-1.02932 -2.4053,-4.01721 1.4648,-2.23563 1.5581,-3.57994 0.6829,-9.83676 -1.1349,-8.11292 -3.4169,-14.97959 -5.1727,-15.56487 -2.0068,-0.66894 -4.875,2.83912 -5.5401,6.77617 -0.6602,3.90719 -3.3448,6.04145 -7.5996,6.04145 -1.0991,0 -3.1434,1.14505 -4.5429,2.54457 l -2.5446,2.54456 -5.16,-4.36822 c -2.838,-2.40253 -5.9546,-4.6612 -6.9258,-5.01927 -1.4634,-0.53953 -1.6537,-1.38335 -1.1109,-4.92634 2.2107,-14.43127 24.3676,-37.83067 36.1949,-38.22462 3.1874,-0.10617 3.7231,-0.47375 3.9887,-2.73715 0.211,-1.79813 -0.6786,-3.73676 -2.8488,-6.20858 -3.0255,-3.44576 -3.1269,-3.84197 -2.4585,-9.60131 0.3835,-3.30397 1.103,-6.25798 1.5989,-6.56445 3.0126,-1.86194 -1.9217,-4.63707 -6.1095,-3.43602 -3.0626,0.87833 -3.2411,0.76459 -4.7239,-3.01042 -1.3455,-3.42517 -2.1697,-4.10749 -6.4922,-5.37459 l -4.951,-1.45135 -10.1609,7.51672 c -14.7818,10.93511 -27.2379,16.52534 -50.0291,22.45285 -10.4138,2.70842 -13.1291,3.05303 -20.0867,2.54928 -4.4244,-0.32038 -9.6197,-1.11606 -11.5447,-1.76819 -3.8847,-1.31602 -9.6711,-6.30596 -10.56,-9.10646 -0.3563,-1.12278 -1.5415,-1.81101 -3.1187,-1.81101 -2.3657,0 -2.4979,-0.24515 -1.8873,-3.5 0.3612,-1.925 0.2715,-3.5 -0.1992,-3.5 -1.0449,0 -0.749,-12.35901 0.338,-14.1178 0.4278,-0.69226 0.8581,-2.86146 0.956,-4.82043 0.098,-1.95897 1.1987,-6.93677 2.4461,-11.06177 1.9259,-6.36906 3.0413,-8.24263 7.3965,-12.42487 5.5487,-5.32828 16.394,-12.72746 22.3898,-15.27534 5.5993,-2.37939 21.2693,-6.22531 22.8669,-5.61227 0.7685,0.29493 1.9596,0.0696 2.6468,-0.50069 1.9301,-1.60185 12.7879,-5.45733 13.4643,-4.78099 0.3306,0.33065 1.5371,-10e-4 2.681,-0.73763 1.219,-0.78469 4.5631,-1.2872 8.0798,-1.21412 5.51,0.11448 5.9757,0.29796 5.7022,2.2467 -0.48,3.41935 1.8021,3.82667 4.2487,0.75835 1.4325,-1.79659 2.7964,-2.57821 3.8161,-2.18693 0.8727,0.3349 2.1248,-0.0393 2.7823,-0.83165 0.8277,-0.99724 3.3013,-1.44056 8.038,-1.44056 5.7595,0 7.0074,-0.30847 7.8856,-1.94929 0.5737,-1.07211 2.2716,-2.53803 3.7729,-3.25761 1.5014,-0.71958 2.8998,-2.2049 3.1077,-3.30071 0.2078,-1.09582 0.8883,-2.31301 1.5122,-2.70488 0.6239,-0.39186 1.2269,-1.51686 1.34,-2.5 1.184,-10.28699 2.4929,-12.40172 5.0959,-8.23351 0.9404,1.50575 1.8721,1.87296 3.4906,1.37577 3.002,-0.9222 2.9276,-0.79998 3.7577,-6.17018 0.8202,-5.3063 -0.1278,-7.31348 -3.0887,-6.53918 -1.5272,0.39935 -2.3023,-0.2925 -3.4767,-3.10324 -1.0382,-2.48483 -2.1517,-3.61717 -3.5569,-3.61717 -1.131,0 -1.7648,-0.45441 -1.4175,-1.01631 0.3454,-0.55897 1.0754,-0.73989 1.622,-0.40204 1.5268,0.94358 4.8679,-2.61014 4.8679,-5.17762 0,-1.2573 0.45,-2.56411 1,-2.90403 1.6369,-1.01168 1.1481,-3.07557 -1.3296,-5.61364 -1.2813,-1.3125 -2.6325,-3.2136 -3.0025,-4.22468 -0.6033,-1.64818 -0.2696,-1.77017 3.227,-1.17944 2.6723,0.45149 4.1453,0.26179 4.6795,-0.60266 0.4402,-0.7122 0.2815,-1.42762 -0.3644,-1.64292 -0.6293,-0.20976 -2.7059,-1.44122 -4.6148,-2.73658 -1.9088,-1.29537 -4.6376,-2.5003 -6.064,-2.67764 -1.4263,-0.17734 -2.4669,-0.77244 -2.3123,-1.32244 0.1667,-0.59294 4.1481,-0.92848 9.7811,-0.82431 7.3797,0.13648 11.0893,0.75025 16.621,2.75 3.9165,1.41587 8.0016,2.57431 9.0779,2.57431 3.386,0 24.9827,7.63938 28.4688,10.07022 1.8328,1.27799 6.8306,4.96344 11.1063,8.18988 7.551,5.69808 7.9485,6.21444 13.8614,18.01008 l 6.0876,12.14382 1.4537,14.043 c 1.3083,12.63744 1.7883,14.64354 4.7956,20.043 2.8155,5.05516 3.4524,7.41802 4.0445,15.00484 0.7037,9.01601 -0.4661,18.41778 -7.1537,57.49516 -0.8942,5.225 -1.8313,10.88006 -2.0824,12.5668 -0.4297,2.88554 0.077,3.44325 8.5671,9.43581 l 9.0238,6.369 -1.5297,3.56419 c -3.4587,8.05921 -4.3419,11.6167 -4.3419,17.48993 0,3.46888 -0.5258,6.70008 -1.2,7.37427 -0.8101,0.81011 -5.4401,1.20181 -14.25,1.20558 -7.1775,0.003 -14.85,0.47966 -17.05,1.05909 -2.2,0.57944 -6.3625,1.7145 -9.25,2.52236 l -5.25,1.46884 0,4.98634 c 0,4.11493 1.106,7.21204 6.3286,17.72207 3.4808,7.00465 8.7381,19.21647 11.683,27.13739 l 5.3544,14.40168 -1.2431,14.09832 -1.243,14.09833 -5.4965,9.75 c -3.0231,5.3625 -5.7423,9.75 -6.0426,9.75 -0.3004,0 -10.8667,1.575 -23.4807,3.5 -24.4048,3.72438 -25.7765,3.77801 -63.3601,2.47694 z m 13.5,-75.47694 c 0,-0.83333 -0.8889,-1.5 -2,-1.5 -1.9922,0 -2.6011,1.06554 -1.3333,2.33333 1.2179,1.21793 3.3333,0.68908 3.3333,-0.83333 z m 53.3697,-5.75 c 1.4264,-5.32238 0.029,-10.39522 -3.4636,-12.57654 -1.6111,-1.00617 -2.0584,-0.94019 -2.5643,0.37825 -0.9267,2.41479 2.838,14.44829 4.5201,14.44829 0.4977,0 1.1762,-1.0125 1.5078,-2.25 z m -31.1514,-167.33615 c 8.8155,-12.31956 13.1607,-15.78626 24.9497,-19.90506 9.2334,-3.22598 11.0625,-4.81784 7.1477,-6.22074 -11.5765,-4.14857 -20.7765,-5.20237 -25.378,-2.90688 -1.7847,0.89036 -3.7662,1.61883 -4.4033,1.61883 -1.5518,0 -5.5344,5.48463 -5.5344,7.62165 0,2.27246 -4.5869,10.00586 -6.332,10.6755 -1.9443,0.74611 -2.9314,8.03069 -1.5107,11.14882 0.9065,1.98942 1.895,2.55403 4.4715,2.55403 2.7859,0 3.8256,-0.72367 6.5895,-4.58615 z m 11.3508,-38.52565 c 0.7652,-1.2381 -1.2575,-2.85757 -3.5691,-2.85757 -2.3116,0 -4.3343,1.61947 -3.5691,2.85757 0.3779,0.61149 1.984,1.1118 3.5691,1.1118 1.5851,0 3.1912,-0.50031 3.5691,-1.1118 z m -195.5691,237.8851 c 0,-1.82294 1.7728,-3.33381 2.757,-2.34963 0.3432,0.34317 -0.1368,1.38466 -1.0665,2.31443 -1.559,1.55894 -1.6905,1.56168 -1.6905,0.0352 z m 46.1579,-15.7733 c 0,-1.375 0.227,-1.9375 0.5044,-1.25 0.2774,0.6875 0.2774,1.8125 0,2.5 -0.2774,0.6875 -0.5044,0.125 -0.5044,-1.25 z m -43.845,-17.09067 c -4.8471,-5.54987 -9.2305,-10.83737 -9.7408,-11.75 -0.5104,-0.91263 -3.0946,-4.49446 -5.7428,-7.95962 -2.6481,-3.46516 -7.5608,-11.20393 -10.9171,-17.19726 -3.3562,-5.99334 -7.1845,-11.60608 -8.5072,-12.47276 -2.3821,-1.5608 -2.405,-1.73574 -2.405,-18.38608 0,-9.24565 0.3307,-17.14097 0.7349,-17.54516 1.0636,-1.06362 2.8363,8.20964 2.4146,12.63141 -0.1972,2.06745 -0.7615,3.50995 -1.254,3.20555 -0.4925,-0.30439 -0.8955,1.12311 -0.8955,3.17224 0,2.04913 0.334,3.39167 0.7423,2.98343 0.4082,-0.40824 1.4666,2.10426 2.3519,5.58333 l 1.6096,6.32559 0.7227,-5 c 1.0739,-7.42884 1.242,-7.74778 3.4587,-6.56144 2.0696,1.10761 3.1148,-0.24146 3.1148,-4.02035 0,-2.71474 1.8326,-2.37967 3.182,0.58179 0.7303,1.60283 1.9574,2.5 3.4195,2.5 1.2543,0 2.5278,0.40015 2.83,0.88922 0.3023,0.48907 1.7914,1.19913 3.3091,1.57791 1.5176,0.37878 3.55,1.40118 4.5163,2.272 4.0706,3.66848 14.4436,8.49071 16.714,7.77011 1.1546,-0.36646 2.0751,0.2962 2.8871,2.07851 1.0041,2.20372 1.6217,2.50867 3.915,1.93308 3.5428,-0.88917 3.758,-1.17614 2.2471,-2.99666 -1.0757,-1.29609 -0.8927,-1.52417 1.2226,-1.52417 1.3682,0 3.5608,-0.83696 4.8724,-1.85992 2.6202,-2.04344 6.0695,-2.90556 15.8849,-3.97036 3.9194,-0.42518 8.4851,-1.74731 11.5,-3.33016 2.75,-1.44377 6.575,-3.20187 8.5,-3.90689 1.925,-0.70503 4.8224,-2.19441 6.4387,-3.30975 1.6163,-1.11534 3.9788,-1.94182 5.25,-1.83661 1.2712,0.10521 2.3113,-0.25367 2.3113,-0.79751 0,-0.54384 -2.7,-0.9888 -6,-0.9888 -6.165,0 -7.5727,-1.12951 -4.3472,-3.48805 2.4683,-1.80486 0.9395,-3.19606 -4.3905,-3.99526 -12.5884,-1.88756 -10.5401,-6.97558 4.6238,-11.48565 6.4298,-1.91237 8.1594,-2.06057 13.3591,-1.14467 4.8396,0.85249 6.5122,0.77333 8.8143,-0.41712 1.5626,-0.80809 3.6791,-1.46925 4.7032,-1.46925 2.1653,0 16.0511,-4.71828 24.7373,-8.40556 7.2231,-3.06617 8.5,-3.17171 8.5,-0.70258 0,3.65817 -4.7984,8.9714 -32.7562,36.27099 -5.1771,5.05525 -9.5448,10.20583 -9.9112,11.68771 -1.1613,4.69702 -13.0186,18.20768 -23.0814,26.29975 -12.6767,10.19407 -17.9295,12.84969 -25.4168,12.84969 -7.8826,0 -13.315,2.85231 -14.8998,7.82312 -2.7104,8.5018 -7.2161,18.17688 -8.465,18.17688 -0.7391,0 -5.3096,-4.5408 -10.1567,-10.09067 z m 48.8746,-87.97183 c 0.2406,-0.72188 1.0281,-1.50938 1.75,-1.75 0.75,-0.25 1.125,0.125 0.875,0.875 -0.2406,0.72187 -1.0281,1.50937 -1.75,1.75 -0.75,0.25 -1.125,-0.125 -0.875,-0.875 z m -77.1875,-9.99652 c 0,-2.45136 0.3961,-3.81423 1,-3.44098 0.55,0.33992 1,2.16648 1,4.05902 0,1.89254 -0.45,3.44098 -1,3.44098 -0.55,0 -1,-1.82656 -1,-4.05902 z m 9,-0.75292 c 0,-1.12532 4.7783,-4.54815 9.5307,-6.82704 3.196,-1.5326 5.6739,-1.83626 12.7193,-1.55874 7.8528,0.30933 8.75,0.5422 8.75,2.27119 0,1.78225 -0.8051,1.92691 -10.75,1.93165 -9.6703,0.005 -11.1517,0.25256 -14.75,2.46879 -4.2674,2.62836 -5.5,3.01252 -5.5,1.71415 z m -8.9211,-11.77139 c 0.048,-1.16495 0.285,-1.4019 0.6042,-0.60417 0.2889,0.72187 0.2534,1.58437 -0.079,1.91667 -0.3323,0.33229 -0.5687,-0.25834 -0.5253,-1.3125 z m 4.3757,-101.16667 c 0.7071,-2.89577 4.5454,-7.54541 4.5454,-5.50615 0,1.92919 -3.2903,8.25615 -4.2936,8.25615 -0.5078,0 -0.6211,-1.2375 -0.2518,-2.75 z m 118.7954,-56.93933 c 0.9625,-0.25152 2.5375,-0.25152 3.5,0 0.9625,0.25153 0.175,0.45733 -1.75,0.45733 -1.925,0 -2.7125,-0.2058 -1.75,-0.45733 z"
             style="fill:#677587" />
          <path
             id="path66039"
             d="m -1993.8572,-341.19015 c -16.8362,-0.61203 -55.1263,-3.78135 -67.5,-5.58706 -2.2,-0.32105 -15.7759,-2.84683 -30.1686,-5.61284 l -26.1685,-5.02911 -9.8315,-7.00653 c -14.1342,-10.07297 -18.2988,-16.11046 -12.8314,-18.60159 1.375,-0.62649 2.5,-1.63049 2.5,-2.2311 0,-0.60062 1.7483,-3.19777 3.885,-5.77144 2.1368,-2.57368 4.4993,-6.47941 5.25,-8.67941 0.7508,-2.2 2.1568,-5.575 3.1246,-7.5 l 1.7596,-3.5 -0.601,4 c -0.3306,2.2 -1.0074,5.575 -1.5041,7.5 -0.4966,1.925 -0.8956,5.525 -0.8866,8 0.018,5.02032 5.2521,26.67963 6.8279,28.25536 1.4972,1.49719 4.0422,0.14425 5.1349,-2.72973 1.6367,-4.30486 5.565,-2.45555 7.9153,3.7262 1.1628,3.05829 2.8388,3.57781 3.764,1.16675 0.3338,-0.86978 0.091,-6.67267 -0.5402,-12.89531 -1.2414,-12.24487 -0.8917,-14.89999 1.8478,-14.03049 0.9573,0.30381 2.3091,-0.13278 3.0041,-0.9702 1.8349,-2.21092 3.0187,-1.86892 3.0187,0.87208 0,3.96584 3.8121,14.9153 6.2331,17.90298 1.9974,2.46503 2.4851,2.63756 4.1021,1.45115 1.0093,-0.74058 2.144,-2.85657 2.5214,-4.70221 0.9801,-4.79203 3.3116,-5.96917 7.2337,-3.65229 3.5666,2.10681 4.1762,1.65276 5.9005,-4.39429 1.4561,-5.10629 1.2356,-11.2758 -0.6876,-19.24409 l -1.6969,-7.03026 2.5025,-2.11283 c 2.2242,-1.87781 2.4284,-2.61336 1.836,-6.61282 -0.3666,-2.475 -0.4561,-5.0625 -0.1987,-5.75 1.0119,-2.70355 2.0375,-0.98674 2.688,4.5 0.3749,3.1625 0.9219,7.775 1.2156,10.25 0.3429,2.89038 1.3578,5.28454 2.8373,6.69333 1.6788,1.59854 2.4943,3.83716 3.007,8.25512 0.5588,4.81456 1.2254,6.47224 3.2396,8.05667 1.3949,1.09718 3.0025,1.99488 3.5725,1.99488 0.57,0 1.85,0.73625 2.8443,1.63612 1.6743,1.51519 1.8547,1.51425 2.4406,-0.0127 0.348,-0.90687 0.082,-2.31239 -0.591,-3.12338 -1.775,-2.13879 -0.4667,-4.5 2.4934,-4.5 1.8237,0 2.8356,-0.73499 3.5314,-2.5651 1.4961,-3.93506 1.1606,-14.14305 -0.6805,-20.70464 -1.549,-5.52039 -1.5455,-6.25068 0.054,-11.32408 0.9402,-2.98273 1.4588,-5.82872 1.1525,-6.32442 -0.7948,-1.28597 0.4836,-4.1787 1.5542,-3.517 0.4924,0.3043 0.8952,1.44906 0.8952,2.54392 0,1.09485 0.7183,3.37957 1.5961,5.07716 1.3078,2.52902 1.3742,3.50129 0.3671,5.38288 -1.4389,2.68875 -0.6788,5.43128 1.5055,5.43128 1.1118,0 1.5313,1.06219 1.5313,3.87756 0,6.83616 3.2765,7.50533 15.5,3.16566 3.3,-1.17158 6.6238,-2.34497 7.3862,-2.60753 1.1109,-0.38263 1.027,-0.87416 -0.423,-2.47637 -2.1331,-2.35711 -2.9985,-12.01046 -1.1775,-13.13588 0.6895,-0.42612 1.3723,-4.75381 1.6864,-10.68887 0.2904,-5.48507 0.846,-10.28983 1.2348,-10.67725 1.7474,-1.74128 3.5574,0.71762 4.2014,5.70752 2.6423,20.47473 3.9282,26.26254 6.3793,28.71366 2.0874,2.08736 2.2863,2.77362 1.2737,4.39493 -1.4683,2.35119 -0.3574,3.82745 1.2705,1.68828 0.6425,-0.84433 2.6307,-2.56176 4.4182,-3.81652 1.7875,-1.25476 3.25,-2.8478 3.25,-3.54009 0,-0.8158 1.0055,-1.11114 2.8575,-0.83932 3.2929,0.48329 4.9009,-1.89154 2.5831,-3.81511 -1.8577,-1.54177 -1.8333,-3.85921 0.063,-5.95431 0.8272,-0.91401 1.9451,-5.22216 2.4856,-9.57874 0.86,-6.93084 1.3624,-8.26244 4.0313,-10.68434 2.4668,-2.23863 3.4196,-2.56828 4.9914,-1.72709 2.9695,1.58925 3.5718,3.55917 4.89,15.99381 0.6704,6.325 1.4884,12.625 1.8177,14 0.3292,1.375 0.4988,3.2875 0.3768,4.25 -0.2354,1.85733 3.2958,2.54301 4.3459,0.84388 0.308,-0.49837 1.4595,-0.67088 2.559,-0.38337 1.3854,0.3623 1.999,0.0302 1.999,-1.08209 0,-1.05838 -0.748,-1.52373 -2.1968,-1.36663 -2.9344,0.31821 -4.7152,-4.17862 -2.964,-7.48466 1.7807,-3.36148 2.3226,-20.39794 0.692,-21.75126 -0.7096,-0.5889 -1.5581,-2.41063 -1.8857,-4.0483 -0.4565,-2.28282 -1.1401,-2.97761 -2.9294,-2.97761 -4.6328,0 -5.9251,-2.06726 -6.3068,-10.08814 -0.1947,-4.09309 -1.207,-10.1352 -2.2495,-13.42692 -1.7388,-5.49047 -2.1336,-5.98494 -4.7776,-5.98494 -2.5538,0 -3.0633,0.54564 -4.4715,4.78929 -0.8741,2.63411 -2.076,5.27604 -2.6709,5.87095 -0.595,0.59491 -4.1548,1.42151 -7.9107,1.8369 -6.5006,0.71892 -7.0696,0.60777 -11.8291,-2.31058 -2.75,-1.68621 -5.114,-3.13196 -5.2533,-3.21279 -0.1393,-0.0808 0.041,-2.29102 0.3998,-4.91152 1.147,-8.36818 13.8408,-25.37145 23.3748,-31.31041 6.2199,-3.87447 9.6039,-5.25184 12.9033,-5.25184 5.585,0 6.1979,-4.27726 1.9622,-13.69514 -2.2748,-5.05777 -2.4092,-8.16715 -0.3868,-8.94323 2.3088,-0.88598 1.7922,-3.22325 -1.4231,-6.43855 -1.8493,-1.84933 -3.9615,-2.92414 -5.75,-2.92596 -2.002,-0.002 -3.3919,-0.84628 -4.7634,-2.89334 -1.4199,-2.11941 -2.98,-3.03043 -5.8484,-3.41517 -2.4966,-0.33486 -4.4755,-1.32916 -5.4693,-2.74805 l -1.5573,-2.22335 -1.8267,3.5606 c -1.15,2.24163 -4.8893,5.76432 -10.0942,9.50962 -13.7656,9.90515 -27.0664,15.78343 -47.2676,20.88987 -14.8944,3.76499 -22.0355,4.04018 -31.4724,1.21283 -4.1659,-1.24815 -10.5524,-6.81757 -11.599,-10.11511 -0.3099,-0.97626 -1.335,-1.77502 -2.2782,-1.77502 -1.385,0 -1.7743,-1.10579 -2.0244,-5.75 -0.6692,-12.43009 0.086,-18.61051 3.7574,-30.74682 1.1641,-3.84825 2.1166,-7.09745 2.1166,-7.22044 0,-0.71367 15.2373,-13.06052 17.6281,-14.28414 1.5795,-0.80842 3.9969,-2.25176 5.3719,-3.20743 2.9993,-2.08459 20.1607,-6.7851 24.7852,-6.78865 1.8068,-10e-4 4.2818,-0.62701 5.5,-1.39028 2.6847,-1.68218 6.5945,-2.37913 17.5825,-3.13415 6.9643,-0.47854 8.6776,-0.2946 10.215,1.09674 1.1268,1.01975 2.8359,1.48272 4.3823,1.18712 1.3942,-0.26654 2.535,-0.097 2.535,0.37672 0,0.47373 0.8625,0.86133 1.9167,0.86133 1.0541,0 2.0865,0.50971 2.2942,1.1327 0.732,2.19602 4.9567,-0.28964 6.412,-3.77257 1.8285,-4.37619 3.8904,-5.18273 6.1418,-2.40241 1.4977,1.84967 2.1678,2.01842 4.4976,1.13264 1.5057,-0.57247 2.7377,-1.55446 2.7377,-2.18219 0,-0.68247 1.0194,-0.94645 2.5357,-0.6566 2.8914,0.55274 5.4643,-2.23234 5.4643,-5.91506 0,-1.22016 0.4189,-2.47737 0.9309,-2.79381 1.9576,-1.20986 2.1692,1.7376 0.4649,6.47695 -1.882,5.23382 -1.4586,7.10724 1.1224,4.96523 2.9623,-2.45846 3.2857,0.45681 0.9212,8.30373 -2.5011,8.3 -2.3984,9.57357 1.0741,13.32048 3.9952,4.31087 8.507,2.44615 13.9935,-5.78347 4.0159,-6.02393 8.4809,-10.72817 11.8627,-12.49852 3.773,-1.97515 12.6559,-4.25451 14.2285,-3.65105 0.6821,0.26176 2.4016,-0.28502 3.821,-1.21507 2.5476,-1.66922 2.5808,-1.65731 2.5808,0.92401 0,3.54714 3.6631,3.6314 5,0.11501 0.5228,-1.375 1.5559,-2.5 2.2958,-2.5 2.8079,0 19.6213,3.9385 23.2042,5.43555 4.4419,1.85594 4.8272,1.90292 3.9487,0.48147 -1.1918,-1.92831 -11.2929,-7.91702 -13.3536,-7.91702 -1.8736,0 -4.0154,-0.7058 -10.0951,-3.32678 -1.375,-0.59277 -3.687,-2.14752 -5.1377,-3.45502 -2.9827,-2.68815 -11.0623,-4.05301 -24.0968,-4.0706 -4.254,-0.006 -8.1915,-0.29286 -8.75,-0.63804 -0.5585,-0.34518 -1.5701,-0.28484 -2.2479,0.13408 -3.5526,2.19559 -6.7174,0.27389 -5.3628,-3.25626 0.4681,-1.21988 0.9443,-1.34251 1.9552,-0.50353 0.735,0.61 3.3172,0.99818 5.7382,0.86262 3.6341,-0.20348 4.4018,-0.59109 4.4018,-2.22239 0,-3.17262 -4.9264,-4.38982 -8.7908,-2.17198 -2.9871,1.71437 -3.1864,1.71575 -4.4187,0.0305 -0.7098,-0.97067 -1.2905,-2.86273 -1.2905,-4.20457 0,-2.22732 0.3031,-2.39053 3.4817,-1.87472 4.3207,0.70116 4.9583,-0.21381 5.0893,-7.30331 0.056,-3.025 0.4684,-6.33943 0.9166,-7.3654 0.6839,-1.56537 0.4826,-1.75992 -1.2513,-1.2096 -2.4279,0.77059 -7.2363,-0.24833 -7.2363,-1.53341 0,-0.49037 0.6404,-0.89159 1.4231,-0.89159 2.6645,0 7.3708,-5.82081 8.0747,-9.98679 0.466,-2.75853 1.1976,-4.03396 2.3401,-4.07957 17.5094,-0.69908 21.202,-0.67815 21.6971,0.12299 0.3207,0.51885 1.7468,0.94337 3.1691,0.94337 3.7377,0 15.8632,6.16776 22.5453,11.46793 5.035,3.9937 6.4825,6.02287 11.6498,16.33097 l 5.9004,11.77063 1.5047,14.49512 c 1.3533,13.03724 1.8128,14.99501 4.568,19.46524 2.3836,3.86725 3.3192,6.96719 4.2168,13.97011 1.0538,8.22242 0.9321,10.29596 -1.4081,24 -1.4089,8.25 -3.2758,19.95 -4.1486,26 -0.8729,6.05 -2.1802,13.54264 -2.9053,16.65031 -0.7605,3.25985 -0.9628,6.28527 -0.4782,7.15118 1.046,1.86911 14.2076,11.69851 15.6644,11.69851 1.8534,0 2.1303,1.55488 0.7504,4.2146 -2.9847,5.75294 -5.5637,15.10842 -5.5637,20.18239 0,3.9916 -0.4102,5.54643 -1.5818,5.99602 -0.87,0.33385 -7.5075,0.64391 -14.75,0.68903 -10.1949,0.0635 -14.9692,0.57155 -21.1444,2.25 l -7.9763,2.16796 -0.7776,4.5 c -0.733,4.24191 -0.3516,5.38897 6.6495,20 4.0849,8.525 9.5343,21.20765 12.1097,28.18367 l 4.6826,12.68367 -1.4899,14.31633 c -1.4596,14.02415 -1.5838,14.48191 -6.0884,22.42937 -2.5291,4.46217 -5.1688,8.58058 -5.8659,9.15202 -0.6971,0.57144 -10.2675,2.49471 -21.2675,4.27394 -22.2393,3.59715 -32.8399,4.09464 -63.5,2.98008 z m 39,-76.01908 c 0,-0.55 -0.45,-1 -1,-1 -0.55,0 -1,0.45 -1,1 0,0.55 0.45,1 1,1 0.55,0 1,-0.45 1,-1 z m 26.3178,-6.27538 c 1.1654,-4.92773 0.3854,-7.39793 -3.8339,-12.14123 l -3.4839,-3.91661 0,4.51739 c 0,2.48456 0.4128,5.82203 0.9173,7.41661 0.5045,1.59457 1.1956,4.16662 1.5358,5.71566 0.8928,4.06655 3.7475,3.13248 4.8647,-1.59182 z m -11.3178,-234.11763 c 0,-0.76616 -0.5625,-1.59828 -1.25,-1.84917 -2.3037,-0.84067 -8.6079,0.42949 -9.1506,1.84364 -0.4194,1.09298 0.6582,1.39854 4.932,1.39854 4.0076,0 5.4686,-0.37215 5.4686,-1.39301 z m -154.422,245.89301 c 0.2917,-2.75 0.9032,-8.52467 1.3588,-12.8326 0.4556,-4.30793 1.3312,-8.33543 1.9458,-8.95 1.4789,-1.47888 1.5178,4.47185 0.061,9.2892 -0.5811,1.92137 -1.6954,6.6434 -2.4763,10.4934 -1.085,5.35009 -1.2946,5.82149 -0.8891,2 z m -44.255,-7.65382 c -7.8384,-8.20431 -11.407,-12.4139 -14.7049,-17.34618 -1.471,-2.2 -4.5009,-6.475 -6.7332,-9.5 -4.8911,-6.62824 -10.5767,-17.59006 -11.498,-22.16804 -0.7154,-3.55468 -0.5512,-15.00104 0.2264,-15.77858 0.2561,-0.25612 1.9755,0.34745 3.8209,1.34127 2.2653,1.21994 4.1204,1.55716 5.7106,1.03807 4.4476,-1.45194 8.8224,-0.44455 13.4677,3.10125 2.4977,1.9066 5.7442,3.72644 7.2144,4.04408 2.9828,0.64445 5.2989,1.49954 9.5538,3.52707 4.2525,2.02645 7.5598,1.19165 12.8661,-3.24758 5.2631,-4.40315 6.2079,-4.73576 16.2532,-5.7222 4.6259,-0.45426 8.6958,-1.59134 12,-3.35261 6.3722,-3.39667 16.9392,-7.40432 21.6495,-8.2108 2.0073,-0.34367 4.1608,-1.24087 4.7856,-1.99379 0.6249,-0.75291 2.8076,-1.66499 4.8505,-2.02685 5.9591,-1.05552 7.2144,-1.59818 7.2144,-3.11868 0,-1.82777 -1.11,-1.81667 -3.5589,0.0356 -2.6698,2.01938 -3.6888,1.88752 -2.9678,-0.38404 0.8591,-2.70671 -1.1282,-3.5403 -3.9821,-1.67036 -3.5929,2.35419 -4.1462,1.92253 -1.1247,-0.87762 1.4794,-1.37107 3.3182,-2.21066 4.146,-1.89301 2.2148,0.8499 1.7984,-0.40639 -0.5515,-1.66405 -1.6758,-0.89687 -2.5801,-0.63598 -5.0766,1.46466 -1.9139,1.61045 -3.8415,2.38812 -5.2109,2.10232 -1.1954,-0.24947 -5.4415,-0.99746 -9.4358,-1.66219 -3.9943,-0.66474 -7.7011,-1.73739 -8.2375,-2.38368 -2.7862,-3.35721 12.3536,-10.08871 20.3371,-9.04226 2.6604,0.34874 5.6355,1.13261 6.6112,1.74194 1.3678,0.85419 2.3147,0.72916 4.1353,-0.54602 2.9484,-2.06517 5.0401,-2.14042 4.2778,-0.15389 -0.418,1.08929 0.1158,1.5 1.9496,1.5 1.3889,0 3.3044,0.29899 4.2567,0.66442 1.4519,0.55717 1.6266,0.24657 1.0818,-1.92401 -0.7027,-2.79965 -1.2778,-2.42726 15.6224,-10.11479 9.5518,-4.34489 11.1279,-3.09047 5.4779,4.35988 -1.7875,2.35707 -3.9384,5.30751 -4.7798,6.55653 -3.0712,4.55923 -9.5528,10.69002 -12.7915,12.09925 -1.8267,0.79483 -4.0755,2.75921 -4.9972,4.36527 -0.9218,1.60607 -2.7215,3.47969 -3.9994,4.1636 -2.751,1.47225 -11.1821,12.3916 -11.1821,14.48215 0,2.7063 -10.8587,16.15797 -17.1985,21.30532 -3.4658,2.81396 -7.9476,6.4403 -9.9595,8.05854 -6.5987,5.30756 -12.718,7.98424 -18.2409,7.97888 -6.4449,-0.006 -14.5992,2.85033 -15.7013,5.50042 -0.4585,1.10249 -2.1976,5.62969 -3.8646,10.06044 -4.8268,12.82942 -4.605,12.72923 -11.7122,5.29027 z m 17.0501,-3.59618 c 0.2793,-0.9625 1.0142,-3.70792 1.6331,-6.10094 0.6189,-2.39302 1.3473,-4.12889 1.6187,-3.85749 0.5758,0.57581 -2.527,11.70843 -3.2632,11.70843 -0.2731,0 -0.2679,-0.7875 0.011,-1.75 z m -56.6231,-50.3301 c -1.5574,-0.90708 -1.75,-2.87859 -1.75,-17.91057 0,-10.2298 0.396,-17.13607 1.0042,-17.51195 0.6015,-0.37171 0.9645,0.70767 0.905,2.69098 -0.055,1.8214 0.038,3.98664 0.2064,4.81164 0.1682,0.825 -0.069,4.10969 -0.5263,7.2993 -0.6198,4.32005 -0.4389,7.12587 0.7094,11 3.2103,10.83107 3.1563,11.77856 -0.5487,9.6206 z m 7.2653,-47.1699 c 0.012,-1.81944 0.2008,-1.96296 0.9847,-0.75 1.2529,1.93876 1.2529,3 0,3 -0.55,0 -0.9931,-1.0125 -0.9847,-2.25 z m 9.9847,-2.2021 c 0,-0.24865 2.5875,-1.96157 5.75,-3.80648 5.9998,-3.5001 5.5489,-3.44064 21.5833,-2.84642 1.7946,0.0665 2.6782,0.5633 2.4103,1.355 -0.3039,0.89777 -3.4975,1.25 -11.3334,1.25 -9.713,0 -11.2563,0.2469 -14.0646,2.25 -3.0728,2.19182 -4.3456,2.71842 -4.3456,1.7979 z m 194.5,-95.5479 c 0.3399,-0.55 0.8165,-1 1.059,-1 0.2426,0 0.441,0.45 0.441,1 0,0.55 -0.4766,1 -1.059,1 -0.5825,0 -0.7809,-0.45 -0.441,-1 z m -199.4847,-17.02749 c 0.021,-2.02438 1.73,-4.56057 2.5323,-3.75822 0.361,0.36101 -0.064,1.6856 -0.9456,2.94355 -1.0324,1.47398 -1.5966,1.76363 -1.5867,0.81467 z m 118.2537,-56.6655 c 0.973,-0.25354 2.323,-0.23687 3,0.0371 0.6771,0.27393 -0.119,0.48137 -1.769,0.46099 -1.65,-0.0204 -2.2039,-0.2445 -1.231,-0.49804 z"
             style="fill:#54616a" />
          <path
             id="path66037"
             d="m -1988.3572,-341.22894 c -29.5551,-0.84146 -69.6093,-5.05822 -95.1134,-10.01317 -11.4876,-2.23183 -23.3616,-4.50126 -26.3866,-5.04319 -3.025,-0.54193 -6.5125,-1.41186 -7.75,-1.93319 -2.45,-1.0321 -3.0553,-2.99074 -0.9243,-2.99074 0.7291,0 2.3826,-1.125 3.6743,-2.5 3.2378,-3.44643 4.6286,-3.14841 7,1.5 2.206,4.32418 3.1018,4.78723 4.9508,2.55932 0.9281,-1.11829 0.9163,-3.98754 -0.053,-12.82215 -1.2994,-11.84563 -0.9158,-15.3417 1.5784,-14.3846 0.8028,0.30805 1.7255,0.12974 2.0506,-0.39624 1.1619,-1.87993 3.473,-0.95686 3.473,1.38712 0,3.36513 3.5569,13.22549 6.0171,16.68052 2.0174,2.83316 2.1922,2.885 4.5405,1.34632 1.3436,-0.88032 2.4424,-2.57323 2.4424,-3.76279 0,-1.18937 0.7151,-3.18341 1.5891,-4.43121 l 1.5891,-2.26873 3.4876,2.05779 c 1.9183,1.13179 3.8518,1.83278 4.2968,1.55777 0.445,-0.27502 1.5789,-3.34387 2.5197,-6.81967 1.5894,-5.87176 1.5975,-6.92344 0.1142,-14.83947 -2.0022,-10.68499 -1.9921,-11.49118 0.1535,-12.24799 0.9625,-0.3395 2.3125,-0.87949 3,-1.19997 0.8923,-0.41595 1.25,0.59943 1.25,3.5484 0,3.06263 0.6139,4.70066 2.3736,6.33333 1.5164,1.40692 2.8407,4.3691 3.6668,8.20225 1.0958,5.08417 1.9928,6.64188 5.8764,10.20519 2.5208,2.31285 5.1154,4.22535 5.7658,4.25 2.0335,0.077 2.5864,-3.89567 0.9003,-6.46897 -2.1349,-3.25826 -2.0437,-3.48622 1.394,-3.48622 4.6051,0 6.5582,-3.79395 6.3027,-12.2431 -0.1139,-3.76815 -0.9866,-9.32411 -1.9394,-12.34657 -1.4885,-4.722 -1.5561,-6.154 -0.4806,-10.17514 1.4478,-5.4133 1.8184,-5.95716 3.1512,-4.62436 1.2259,1.22591 1.4302,4.94183 0.4969,9.0385 -0.5969,2.62036 -0.3832,3.25542 1.2727,3.78098 1.6735,0.53113 1.9686,1.45195 1.8549,5.78659 l -0.1353,5.15494 5.4651,-0.27147 c 3.0058,-0.14932 6.8308,-1.01097 8.5,-1.91478 1.6692,-0.90382 5.2849,-2.10282 8.0349,-2.66445 4.1584,-0.84926 4.9528,-1.35778 4.7193,-3.02114 -0.1544,-1.1 -0.4699,-4.475 -0.7011,-7.5 -0.2313,-3.025 -0.7169,-8.99126 -1.0791,-13.25836 -0.7704,-9.07604 0.032,-14.74164 2.0872,-14.74164 1.6109,0 1.9298,1.14962 3.468,12.5 2.5135,18.54814 2.8447,19.9512 5.1501,21.81801 1.8927,1.53259 2.0596,2.12562 1.0526,3.73821 -2.5935,4.15287 0.021,5.57057 3.3957,1.8414 3.0226,-3.33996 7.1455,-5.01011 12.4696,-5.05135 5.2371,-0.0406 7.2382,-1.42216 4.7233,-3.26112 -1.2922,-0.94489 -1.4078,-2.99691 -0.7711,-13.69302 0.4119,-6.91986 1.2396,-13.4985 1.8394,-14.6192 1.6515,-3.08573 4.2223,-3.64115 6.4664,-1.39704 1.5586,1.55853 2.2219,4.55031 3.279,14.78894 0.7288,7.05934 1.6336,14.56955 2.0107,16.68935 l 0.6855,3.85418 3.9775,-0.63602 c 2.1876,-0.34982 4.7617,-1.05572 5.7201,-1.56867 1.8975,-1.01549 3.3037,-6.06669 2.3678,-8.50547 -0.3215,-0.83802 -0.073,-2.13991 0.5519,-2.89309 1.9028,-2.29274 1.8658,-16.76276 -0.05,-19.68995 -1.0245,-1.56499 -1.6081,-4.45438 -1.5589,-7.71727 0.1128,-7.47624 -1.1443,-8.25486 -7.6475,-4.73699 -2.9285,1.58416 -6.0117,2.6166 -6.8516,2.29431 -1.0313,-0.39575 -1.753,-2.64223 -2.2232,-6.92059 -0.9093,-8.27423 -3.348,-18.84864 -4.7312,-20.51531 -0.6023,-0.72562 -2.1722,-1.31931 -3.4887,-1.31931 -1.8175,0 -2.7755,0.90272 -3.9796,3.75 -3.9166,9.26155 -3.2477,8.72145 -11.2009,9.04451 -5.9756,0.24273 -7.9392,-0.0927 -11.1692,-1.90811 -2.1555,-1.21144 -4.1056,-2.69397 -4.3336,-3.29451 -0.228,-0.60054 0.1993,-3.48308 0.9495,-6.40564 3.5262,-13.73676 23.2173,-33.18625 33.5985,-33.18625 1.1725,0 3.6297,-0.54161 5.4603,-1.20358 3.3018,-1.19393 3.3236,-1.24402 2.7233,-6.25 -0.3329,-2.77553 -1.4146,-6.75383 -2.4039,-8.84067 -1.4363,-3.02983 -1.5827,-4.36645 -0.7266,-6.63439 0.9521,-2.52262 0.7042,-3.30446 -2.2176,-6.99358 -1.8093,-2.28439 -5.0232,-5.03789 -7.1422,-6.11888 -2.1189,-1.08099 -4.3334,-2.86396 -4.9211,-3.96217 -0.6614,-1.23578 -2.0936,-1.99673 -3.7581,-1.99673 -1.8366,0 -3.7227,-1.16143 -5.9479,-3.66263 l -3.2584,-3.66263 -1.5537,3.91263 c -0.8546,2.15195 -1.9743,4.91794 -2.4882,6.14665 -1.2284,2.9365 -12.5733,11.25888 -21.992,16.13279 -10.8851,5.63273 -18.9419,8.60666 -33.0218,12.18892 -10.7095,2.72477 -13.683,3.10423 -20.9782,2.67712 -12.0309,-0.70437 -16.3693,-2.7128 -20.8134,-9.63546 -3.8794,-6.04292 -4.436,-8.82273 -4.3778,-21.86219 0.028,-6.18168 0.6996,-10.25486 2.6663,-16.16039 3.0613,-9.19218 4.1184,-10.46551 16.5688,-19.95651 6.945,-5.29421 19.453,-9.9611 32.4561,-12.1098 2.75,-0.45442 7.475,-1.5369 10.5,-2.40549 3.025,-0.8686 8.2651,-1.58461 11.6447,-1.59114 6.4324,-0.0124 18.7217,3.18336 21.4118,5.56804 2.9467,2.6122 8.2616,0.27333 9.3644,-4.12093 0.7082,-2.8217 2.0792,-3.20418 2.9888,-0.83383 0.4975,1.29649 1.4571,1.49185 4.7455,0.96603 3.3263,-0.53191 4.7494,-0.22914 7.3732,1.56874 2.979,2.04121 3.308,2.80283 3.9276,9.09074 0.4574,4.64097 1.1526,7.04564 2.1474,7.42739 0.8091,0.31049 2.1064,2.08494 2.8828,3.94324 0.7765,1.85829 1.868,3.37871 2.4257,3.37871 1.5647,0 10.9133,-10.00555 13.6788,-14.64006 3.0491,-5.10972 10.5792,-11.11359 14.9725,-11.93778 3.1139,-0.58417 7.9384,-0.28842 18.6868,1.14553 2.6125,0.34853 4.75,0.23094 4.75,-0.26133 0,-1.36142 12.4722,-1.52843 17.2673,-0.23121 4.831,1.30693 6.072,1.78327 13.9115,5.33978 7.7797,3.52941 9.7663,6.65199 11.2921,17.7497 1.0948,7.96218 1.0247,10.23961 -0.5902,19.18502 -1.0078,5.58269 -2.9827,18.07859 -4.3886,27.76866 -1.4059,9.69007 -2.9918,19.1371 -3.5241,20.9934 -0.5324,1.8563 -0.968,4.16743 -0.968,5.13584 0,2.00029 15.6518,14.0857 17.0906,13.19643 0.5002,-0.30911 0.9094,0.36454 0.9094,1.497 0,1.13246 -0.3678,2.05902 -0.8174,2.05902 -1.4512,0 -4.5937,11.29772 -5.1459,18.5 l -0.5367,7 -14.5,0.55041 c -14.6221,0.55504 -29.4438,3.55206 -31.2347,6.31581 -2.227,3.43671 -0.6218,9.66139 6.1237,23.74779 3.789,7.9123 9.0489,20.19271 11.6887,27.28981 l 4.7997,12.90383 -1.1876,14.35208 -1.1876,14.35209 -5.1198,9.00485 c -3.4319,6.03583 -5.8226,9.15808 -7.2512,9.46958 -1.1722,0.25561 -9.5562,1.63155 -18.6312,3.05766 -9.075,1.42611 -18.525,2.98532 -21,3.4649 -2.475,0.47958 -7.2,0.80388 -10.5,0.72067 -3.3,-0.0832 -15.45,-0.42035 -27,-0.74919 z m 76.262,-33.81202 c 0.9687,-0.61494 1.0074,-1.53143 0.1664,-3.94383 -1.3508,-3.87482 -4.7199,-5.23011 -6.6022,-2.65586 -1.4078,1.92523 -1.7712,5.65307 -0.6595,6.76475 0.9186,0.91867 5.5581,0.81074 7.0953,-0.16506 z m -19.762,-33.66827 c 0,-0.825 -0.45,-1.5 -1,-1.5 -0.55,0 -1,0.675 -1,1.5 0,0.825 0.45,1.5 1,1.5 0.55,0 1,-0.675 1,-1.5 z m 4.3901,-15.53042 c 0.6307,-5.10745 0.4416,-5.8315 -2.8573,-10.93586 -1.943,-3.00645 -3.5349,-5.93145 -3.5374,-6.5 0,-0.56855 -1.4626,-2.58955 -3.2445,-4.49111 -3.9076,-4.1699 -5.0468,-2.21694 -1.8068,3.09746 1.1266,1.84796 2.0501,4.80047 2.0522,6.56114 0,1.76067 0.6787,5.79271 1.5037,8.9601 0.825,3.16739 1.5,7.72396 1.5,10.12571 l 0,4.36683 2.8573,-2.85735 c 2.1606,-2.16059 3.0221,-4.19107 3.5328,-8.32692 z m -68.5879,-159.82114 c -2.2723,-8.80678 -2.3715,-8.21504 1.3274,-7.91858 3.0126,0.24146 3.404,-0.0218 3.6868,-2.47986 0.385,-3.3458 -1.0467,-3.51662 -5.6995,-0.68004 -3.3096,2.01772 -3.3711,2.17856 -2.8311,7.41045 0.6364,6.16557 2.5007,10.48301 3.6935,8.55313 0.4203,-0.68016 0.3407,-2.87846 -0.1771,-4.8851 z m -131.4094,219.21426 c -7.5166,-5.10094 -10.6004,-7.77436 -12.9412,-11.21906 -2.6084,-3.83866 -2.4232,-4.82375 1.1635,-6.18739 1.3314,-0.50621 2.882,-1.94095 3.4458,-3.18832 2.9287,-6.48014 6.2857,-10.28979 8.0864,-9.17688 0.469,0.28984 0.8691,2.86293 0.8891,5.71797 0.02,2.85504 1.2873,10.02848 2.8163,15.94098 3.0628,11.84425 2.833,12.38315 -3.4599,8.1127 z m -12.4733,-56.52311 c -9.9665,-11.20022 -11.9195,-13.92184 -11.9195,-16.61071 0,-1.67283 -1.6511,-4.12138 -5.006,-7.42379 -6.5526,-6.45008 -8.5934,-10.31652 -7.0085,-13.27804 1.3611,-2.54313 -0.2889,-7.43621 -4.6248,-13.71509 -1.9911,-2.88324 -2.3972,-4.3694 -1.861,-6.81041 0.6569,-2.99103 0.7765,-3.05644 2.843,-1.55505 6.6,4.79502 6.3951,4.71991 10.0911,3.6994 3.1307,-0.86443 4.2846,-0.61229 9.1984,2.00986 11.8768,6.33779 23.7587,7.62104 29.9626,3.23597 6.3652,-4.49903 12.8869,-7.1533 16.27,-6.62161 2.574,0.40454 5.3939,-0.42433 12,-3.52731 4.7493,-2.23087 10.4352,-4.76619 12.6352,-5.63405 4.044,-1.59529 13.9593,-2.48278 15.0913,-1.35079 0.3379,0.33789 1.7055,0.1995 3.0391,-0.30753 2.2105,-0.84043 2.3308,-0.74643 1.362,1.06384 -0.5845,1.09215 -2.1164,2.6761 -3.4042,3.51989 -1.7022,1.11532 -2.6576,3.14141 -3.4997,7.42126 -1.6028,8.14686 -7.3433,15.60359 -18.0778,23.48253 -4.682,3.43651 -10.7001,7.41258 -13.3734,8.83571 -4.6329,2.4663 -5.014,2.51435 -8.1357,1.02572 -3.2037,-1.52774 -3.4137,-1.48032 -9.6383,2.17521 -3.4998,2.05535 -6.9964,4.0495 -7.7702,4.43145 -0.7738,0.38195 -3.2488,5.58868 -5.5,11.57051 -2.2512,5.98183 -4.5793,11.0338 -5.1736,11.2266 -0.5943,0.19279 -3.9693,-2.89581 -7.5,-6.86357 z m -39.2867,-53.35416 c -0.9667,-2.51915 -0.7531,-7.48543 0.3219,-7.48543 1.3756,0 2.4892,6.95612 1.3034,8.14191 -0.6567,0.6567 -1.2066,0.43457 -1.6253,-0.65648 z m -0.4728,-20.67641 c -0.088,-6.98004 0.1775,-12.90024 0.59,-13.15599 0.4125,-0.25575 0.6246,4.10519 0.4714,9.69099 -0.4356,15.88108 -0.8862,17.35232 -1.0614,3.465 z m 123.84,3.29797 c 0,-0.49116 0.7386,-1.17646 1.6414,-1.52289 1.3725,-0.52667 1.4344,-0.38034 0.3776,0.89301 -1.4401,1.73524 -2.019,1.91584 -2.019,0.62988 z m -26.4213,-14.97964 c -0.7994,-1.29347 3.6966,-4.73306 8.0759,-6.17836 4.5241,-1.4931 6.1651,-0.18739 4.7705,3.79586 -0.8791,2.51076 -1.4651,2.78152 -6.6066,3.05242 -3.1031,0.1635 -5.911,-0.13797 -6.2398,-0.66992 z m 44.4213,-4.18455 c 1.375,-1.09486 3.7375,-3.17989 5.25,-4.6334 1.5125,-1.4535 3.0398,-2.35295 3.394,-1.99876 0.9782,0.97825 -7.3964,8.69411 -9.3951,8.65609 -1.4242,-0.0271 -1.2847,-0.40289 0.7511,-2.02393 z m -103.3178,-17.02495 c 0.7494,-0.74948 2.4249,-0.78241 5.45,-0.1071 l 4.3678,0.97507 -5.45,0.10709 c -3.9092,0.0768 -5.1441,-0.19886 -4.3678,-0.97506 z m 252.7811,-75.92421 c -11.4871,-9.05654 -14.2002,-11.04265 -18.7123,-13.69843 -3.4289,-2.01823 -4.7493,-3.42064 -4.75,-5.04521 -10e-4,-2.2612 -2.5167,-3.20303 -3.1866,-1.19306 -0.5029,1.50854 -8.9511,-0.52337 -10.3968,-2.50057 -0.626,-0.856 -1.6022,-1.55637 -2.1694,-1.55637 -0.5673,0 -1.3218,-1.1571 -1.6768,-2.57134 -0.5464,-2.17724 -1.0611,-2.48404 -3.3584,-2.00177 -3.7227,0.78153 -5.134,-0.38935 -4.4954,-3.72967 0.4004,-2.09465 1.2569,-2.94213 3.4086,-3.37246 3.0214,-0.60428 3.1784,-0.92664 2.9075,-5.97067 -0.1771,-3.29714 2.7231,-6.35409 6.0283,-6.35409 0.8893,0 2.1353,-1.13763 2.7688,-2.52807 1.4079,-3.08995 3.7045,-4.10251 5.6475,-2.48995 0.799,0.66315 4.1552,1.29088 7.4582,1.39496 8.4546,0.26641 10.4869,2.08525 17.2557,15.44394 5.6679,11.18571 5.6986,11.29485 7.165,25.4565 0.8099,7.82244 1.3819,14.31414 1.271,14.42599 -0.1109,0.11186 -2.4351,-1.55752 -5.1649,-3.70973 z"
             style="fill:#354656" />
          <path
             id="path66035"
             d="m -1984.155,-340.91025 c -13.0887,-0.18447 -23.5824,-0.68383 -23.3192,-1.10968 0.2632,-0.42586 -11.3028,-1.79515 -25.7022,-3.04286 -24.4554,-2.11907 -39.5553,-4.34652 -62.6808,-9.24628 -5.225,-1.10706 -11.869,-2.41495 -14.7645,-2.90642 -7.4565,-1.26568 -7.8834,-1.79713 -4.0668,-5.06238 1.8322,-1.56754 3.6653,-2.86837 4.0734,-2.89072 0.4082,-0.0224 1.5339,1.64083 2.5016,3.69597 2.206,4.685 4.8735,5.40049 6.2857,1.68601 0.713,-1.87525 0.7139,-5.0335 0,-10.14513 -1.4668,-10.5461 -1.3473,-15.27749 0.3859,-15.27749 0.78,0 2.0175,-0.22475 2.75,-0.49944 0.9266,-0.34747 2.0029,1.70639 3.5375,6.75 1.2276,4.03451 3.5129,8.80159 5.1533,10.74944 l 2.9475,3.5 2.5968,-2.42431 c 1.5573,-1.45397 2.5967,-3.50631 2.5967,-5.12756 0,-4.25034 2.028,-5.21744 5.9454,-2.83516 2.7496,1.67217 3.5538,1.79737 4.5533,0.70892 2.0583,-2.24132 4.7298,-13.79045 4.0402,-17.4661 -0.8168,-4.35389 -0.2753,-5.11748 3.261,-4.59847 2.5197,0.36982 3.0664,1.07932 4.288,5.56556 1.646,6.04465 9.1177,14.67712 12.7036,14.67712 1.9835,0 2.2085,-0.50929 2.2085,-5 0,-4.16035 0.3043,-5 1.8119,-5 2.4091,0 5.8797,-4.83917 6.7331,-9.38807 0.869,-4.63211 3.6799,-6.60796 9.4275,-6.62667 2.4901,-0.008 5.6525,-0.66546 7.0275,-1.46078 1.375,-0.79532 3.0854,-1.74562 3.8009,-2.11177 0.7155,-0.36616 2.3195,0.29119 3.5644,1.46078 2.6808,2.51848 5.1835,2.74465 6.0277,0.54472 0.9181,-2.39256 0.6463,-13.3361 -0.4574,-18.41821 -1.9103,-8.79571 -2.1721,-11.93167 -1.3929,-16.6862 l 0.7888,-4.8138 0.7855,4 c 0.4321,2.2 1.4903,8.725 2.3517,14.5 2.1938,14.7074 2.2826,15 4.5503,15 2.3986,0 2.4941,0.7755 0.383,3.10825 -1.6912,1.86882 -1.1613,3.89175 1.0195,3.89175 0.7169,0 3.0022,-1.35 5.0785,-3 3.942,-3.13267 8.0861,-3.82708 11.6039,-1.94439 1.5401,0.82421 2.5669,0.62183 4.6843,-0.92329 l 2.7118,-1.9789 0,-16.32671 c 0,-16.14914 0.024,-16.33017 2.2403,-16.64499 3.6582,-0.51972 3.7564,-0.0304 6.6336,33.04032 0.3323,3.81943 1.0929,4.24749 5.3696,3.02201 7.2564,-2.07927 12.2502,-2.49416 13.8673,-1.15209 2.1222,1.76125 2.9987,0.14097 3.7674,-6.96439 0.6023,-5.56669 -0.6032,-12.78189 -4.8987,-29.31936 -0.956,-3.68048 -1.4563,-7.42624 -1.1119,-8.3239 0.9706,-2.52915 3.9917,-1.29983 4.9777,2.02541 0.4877,1.64465 1.949,5.46528 3.2475,8.49028 3.1813,7.41155 4.4072,15.25073 4.4072,28.18366 0,6.88538 0.3815,10.81634 1.0497,10.81634 0.5773,0 2.3928,-0.69459 4.0345,-1.54352 2.7788,-1.437 3.1829,-1.40249 5.8547,0.5 4.8389,3.44561 5.8211,2.79788 6.5859,-4.34311 0.7796,-7.27986 0.3571,-9.78165 -3.6481,-21.60559 -3.3106,-9.77299 -3.4923,-11.55758 -1.2641,-12.41262 1.3556,-0.52019 1.402,-0.87263 0.2911,-2.21117 -0.7268,-0.87579 -2.2809,-1.95711 -3.4536,-2.40295 -2.2449,-0.8535 -7.4465,-10.32889 -7.4552,-13.58071 0,-1.04518 -1.1138,-3.70033 -2.4688,-5.90033 -3.0676,-4.9805 -3.0878,-5.5 -0.2142,-5.5 2.5807,0 5.2374,-3.18523 8.113,-9.72702 1.5081,-3.43081 1.622,-4.5115 0.6047,-5.73727 -0.6893,-0.83063 -0.9686,-2.25222 -0.6206,-3.15909 0.5812,-1.51476 0.7906,-1.50594 2.5746,0.10854 1.068,0.96657 2.6313,1.49285 3.4739,1.16952 0.966,-0.37068 2.3043,0.45673 3.6223,2.23941 1.5061,2.0371 3.6207,3.19442 7.566,4.14089 5.3916,1.29342 5.5133,1.27297 7.9279,-1.33102 2.6725,-2.88219 3.1378,-2.82988 10.8877,1.22391 5.0916,2.66329 9.3075,2.63789 12.1935,-0.0734 l 2.2839,-2.14557 1.0306,2.71067 c 0.5668,1.49087 1.0306,3.58137 1.0306,4.64557 0,1.06419 0.45,1.9349 1,1.9349 0.55,0 1,2.42252 1,5.38337 0,6.57727 -0.016,6.5839 -15.7862,6.60298 -10.7826,0.013 -25.1651,2.4988 -29.2781,5.06017 -2.5722,1.60188 -1.6343,16.99173 1.6121,26.45348 3.9013,11.37004 4.5116,26.45287 1.4163,35 -1.1951,3.3 -2.1497,7.125 -2.1214,8.5 0.028,1.375 -0.8611,4.48515 -1.9766,6.91143 -1.4379,3.12771 -1.8393,5.41784 -1.3793,7.86984 l 0.6488,3.4584 5.1247,-0.67982 c 6.3767,-0.84593 6.7397,-1.07614 6.7397,-4.27389 0,-2.50448 0.068,-2.53419 1.937,-0.84303 3.1871,2.88432 4.063,1.05151 4.063,-8.50199 0,-7.28087 0.2785,-8.94098 1.5,-8.94098 1.6185,0 1.9847,4.90898 0.6244,8.37031 -0.4042,1.02866 -0.35,4.17866 0.1205,7 1.5364,9.21222 0.9186,13.58765 -2.9221,20.69863 -6.1858,11.45253 -4.4184,10.526 -25.9927,13.62641 -10.5434,1.51519 -18.9544,3.10358 -18.691,3.52977 0.2634,0.42618 -0.3848,0.77488 -1.4405,0.77488 -1.0557,0 -3.8948,0.14274 -6.309,0.31719 -2.4143,0.17445 -15.0986,0.16626 -28.1874,-0.0182 z m 53.7978,-130.29898 c 0.3399,-0.55 0.1415,-1 -0.441,-1 -0.5824,0 -1.059,0.45 -1.059,1 0,0.55 0.1984,1 0.441,1 0.2425,0 0.7191,-0.45 1.059,-1 z m -199.5,103.97386 c -5.6977,-4.10406 -10.9263,-9.63477 -10.9731,-11.60723 -0.015,-0.62335 0.7606,-1.41804 1.7231,-1.76598 4.9548,-1.79113 6.7622,-3.61098 7.25,-7.30015 0.3378,-2.5545 1.0677,-3.88917 2.25,-4.11414 1.4031,-0.26699 1.75,0.37746 1.75,3.2509 0,3.06698 2.5451,15.95508 4.6037,23.31274 0.8685,3.10413 -0.2436,2.805 -6.6037,-1.77614 z m 92.1027,-41.78196 c -0.6778,-1.26653 -1.0536,-2.83913 -0.8351,-3.49468 0.2252,-0.67566 0.9311,-0.19453 1.6297,1.11088 0.6778,1.26653 1.0536,2.83913 0.8351,3.49468 -0.2252,0.67566 -0.9311,0.19453 -1.6297,-1.11088 z m -101.2101,-12.9419 c -11.7173,-12.15104 -13.437,-15.53716 -7.3926,-14.55629 1.925,0.31239 3.4808,0.1716 3.4574,-0.31287 -0.023,-0.48446 -1.8251,-2.90584 -4.0035,-5.38084 -2.8919,-3.2855 -3.5551,-4.58726 -2.4574,-4.82332 2.4084,-0.51792 1.8257,-1.83937 -3.8395,-8.70754 -6.6866,-8.10653 -10.2935,-18.56578 -5.907,-17.12932 4.2335,1.38636 10.4775,2.65596 20.25,4.11746 11.096,1.65942 16.3562,1.28936 28,-1.96982 6.5741,-1.84014 8.3649,-2.08083 26.7307,-3.59283 11.3555,-0.93485 14.5377,-0.9168 15.75,0.0893 0.8356,0.6935 1.5193,1.60167 1.5193,2.01814 0,1.67179 -9.0251,12.23661 -13.1321,15.37256 -8.5746,6.5472 -14.075,8.64068 -24.1454,9.18985 -5.0724,0.27666 -10.1225,0.76112 -11.2225,1.07662 -2.8717,0.82364 -10.5,8.45785 -10.5,10.50809 0,0.95303 -0.45,2.01089 -1,2.35081 -0.55,0.33992 -1,1.9246 -1,3.5215 0,3.21847 -3.7357,13.9785 -4.8532,13.9785 -0.3902,0 -3.2046,-2.5875 -6.2542,-5.75 z m 99.1864,1.16667 c 0.048,-1.16495 0.2849,-1.4019 0.6041,-0.60417 0.2889,0.72187 0.2534,1.58438 -0.079,1.91667 -0.3323,0.33229 -0.5686,-0.25834 -0.5252,-1.3125 z m 74.7503,-38.04166 c -2.8875,-1.52244 -3.6322,-3.90136 -6.3784,-20.37501 -2.7722,-16.63 1.244,-27.5483 9.3822,-25.50575 3.055,0.76676 4.13,2.113 4.1516,5.19905 0.01,1.20631 0.8549,2.78135 1.881,3.50009 1.8242,1.27774 3.562,6.77589 4.9972,15.81105 0.9395,5.91454 1.8872,7.44786 3.6823,5.95803 0.752,-0.62406 1.8369,-0.84435 2.411,-0.48954 1.8809,1.16248 1.0946,2.52707 -1.4562,2.52707 -1.375,0 -2.5,0.57479 -2.5,1.27732 0,0.70252 -1.35,2.46192 -3,3.90977 -1.65,1.44785 -3.0035,3.46055 -3.0078,4.47268 -0.01,1.57074 -2.8204,3.65497 -6.4922,4.80904 -0.55,0.17287 -2.2018,-0.31934 -3.6707,-1.0938 z m 17.1707,-7.31599 c 0,-0.51754 0.45,-1.2191 1,-1.55902 0.55,-0.33992 1,0.0835 1,0.94098 0,0.85746 -0.45,1.55902 -1,1.55902 -0.55,0 -1,-0.42344 -1,-0.94098 z m -54.8736,-5.1232 c -3.1002,-1.89005 -3.3314,-2.37047 -2.8542,-5.92876 0.7264,-5.41532 4.685,-13.57647 9.5577,-19.70391 4.1838,-5.26121 12.3071,-10.95455 14.0729,-9.86321 1.6839,1.04069 3.3536,11.79985 2.7996,18.03937 -0.294,3.31138 -1.4724,7.80334 -2.6185,9.98213 -1.1461,2.17879 -2.0839,4.67629 -2.0839,5.55 0,2.9619 -2.306,3.98861 -8.95,3.98482 -4.8452,-0.003 -7.4281,-0.53906 -9.9236,-2.06044 z m -176.5194,-3.51761 c -0.9519,-2.48064 -0.7108,-6.41821 0.393,-6.41821 0.55,0 1,1.8 1,4 0,4.26299 -0.4112,4.9768 -1.393,2.41821 z m -0.4121,-15.91821 c 0.02,-1.65 0.2445,-2.20394 0.4981,-1.23097 0.2535,0.97297 0.2369,2.32297 -0.037,3 -0.2739,0.67703 -0.4813,-0.11903 -0.461,-1.76903 z m 262.2735,-3.89948 c -1.7187,-1.25671 -1.772,-1.66479 -0.5222,-4 2.1229,-3.96673 4.0538,-3.30015 4.0538,1.39948 0,4.32656 -0.5835,4.75624 -3.5316,2.60052 z m -262.2162,-4.10052 c 0.011,-2.2 0.2159,-2.98225 0.4551,-1.73834 0.2392,1.24391 0.2301,3.04391 -0.02,4 -0.2503,0.95609 -0.446,-0.0617 -0.4349,-2.26166 z m 227.9034,-2.31524 c -1.2704,-3.19838 -3.7845,-7.67874 -5.5868,-9.95635 -3.6907,-4.66391 -6.6863,-15.51086 -4.8037,-17.39354 0.5834,-0.58333 1.4714,-0.80675 1.9734,-0.49648 1.3143,0.81225 6.6335,11.73175 10.7162,21.99862 3.0275,7.61326 3.3185,9.03269 2.1011,10.25 -0.7771,0.77715 -1.5654,1.41299 -1.7517,1.41299 -0.1863,0 -1.3781,-2.61686 -2.6485,-5.81524 z m 51.8552,-2.67177 c -0.7078,-0.85288 -0.9652,-2.55869 -0.6034,-4 0.3815,-1.52001 0.2047,-2.51299 -0.4474,-2.51299 -0.5929,0 -0.7999,-0.45 -0.46,-1 0.3399,-0.55 1.604,-1.01431 2.809,-1.0318 1.2051,-0.0175 3.0645,-0.6925 4.1321,-1.5 1.0676,-0.80751 2.9536,-1.4682 4.191,-1.4682 1.2374,0 2.528,-0.45 2.8679,-1 1.0979,-1.77638 2.5,-1.06289 2.5,1.27216 0,3.14623 -5.467,9.47829 -9.7163,11.25377 -4.2693,1.78385 -3.7807,1.78504 -5.2729,-0.0129 z m -279.8529,-2.51299 c 0,-1.375 0.227,-1.9375 0.5044,-1.25 0.2774,0.6875 0.2774,1.8125 0,2.5 -0.2774,0.6875 -0.5044,0.125 -0.5044,-1.25 z m 247.0277,-0.0743 c -1.1849,-1.89741 -1.0966,-2.05093 1.0079,-1.75261 1.2686,0.17983 2.3065,0.96446 2.3065,1.74363 0,2.26659 -1.9012,2.27174 -3.3144,0.009 z m 7.8144,-14.35242 c -12.4951,-2.8563 -23.9132,-8.28164 -36.5,-17.34303 l -8,-5.7593 -0.6525,-9.26026 c -0.3589,-5.09315 -0.9073,-9.9241 -1.2186,-10.73545 -0.3114,-0.81136 -0.179,-1.47519 0.2941,-1.47519 0.4731,0 1.1633,-1.2375 1.5339,-2.75 0.3705,-1.5125 1.552,-4.1 2.6256,-5.75 1.0736,-1.65 4.7567,-7.32726 8.1848,-12.61614 8.0771,-12.46169 11.1824,-15.06401 19.1135,-16.01724 6.0649,-0.72892 8.4503,-0.40138 18.1192,2.4879 10.608,3.16993 18.403,6.29271 29,11.61784 9.8803,4.965 11.2314,5.97241 13.2732,9.89725 1.7996,3.45933 2.0247,4.66894 1.0807,5.80643 -0.6558,0.79024 -0.7788,1.29892 -0.2732,1.13038 0.5056,-0.16853 1.0318,0.14358 1.1693,0.69358 0.1375,0.55 -0.3125,1 -1,1 -1.332,0 -1.9684,2.49542 -3.7333,14.64074 -1.5702,10.80464 -6.2643,23.48777 -10.1933,27.54145 -6.1008,6.29447 -21.3907,9.50448 -32.8234,6.89104 z m 38.5326,-1.52044 c -0.8792,-1.42264 0.242,-3.05279 2.0997,-3.05279 0.8762,0 1.3781,0.70256 1.191,1.66713 -0.3895,2.00847 -2.3861,2.84922 -3.2907,1.38566 z m -198.5391,-0.98713 c -6.1988,-1.8856 -8.8658,-4.10264 -11.4134,-9.48802 -2.2871,-4.83447 -2.5801,-6.70437 -2.5801,-16.46649 0,-23.4251 3.5631,-29.78809 22.8282,-40.7668 11.5125,-6.56069 29.4853,-10.94156 49.1718,-11.98566 9.1859,-0.48719 11.0666,-0.30066 15.027,1.49034 6.8313,3.08937 8.7427,5.7685 11.5922,16.24887 2.0927,7.69717 2.4647,10.85278 2.0513,17.4021 -0.7718,12.22635 -2.1634,15.1187 -10.2439,21.29072 -6.2869,4.8021 -12.6283,8.28399 -25.4266,13.96116 -5.6622,2.51169 -9.0361,3.5643 -21.5,6.7078 -10.1287,2.55453 -23.9204,3.30519 -29.5065,1.60598 z"
             style="fill:#151718" />
          <path
             style="opacity:0.48900003;fill:#eb4735;fill-opacity:1"
             d="m -2074.596,-552.32617 c 13.0959,0.53811 16.0606,0.79497 20.4474,1.77166 3.3338,0.74209 5.1429,0.49717 6.5073,-0.88118 1.8994,-1.91868 3.8928,-0.91682 2.5249,1.26919 -1.0263,1.64034 4.7182,5.96477 7.0698,5.32169 1.0176,-0.27793 2.0725,-0.17369 2.3437,0.2324 0.2721,0.4054 1.6035,-0.0357 2.961,-0.98197 2.0892,-1.45644 2.5929,-1.34842 3.2862,0.70578 1.1226,3.32927 2.7808,3.34575 5.2805,0.0533 1.5676,-2.06454 1.8699,-3.39721 1.2029,-5.3032 -0.9404,-2.67443 -0.7415,-3.06211 3.6243,-7.14961 2.8536,-2.67196 4.0342,-7.34315 2.4542,-9.70966 -0.4275,-0.63431 -0.064,-2.49454 0.7999,-4.12846 1.9216,-3.63063 1.6741,-6.13448 -0.6082,-6.15721 -0.939,-0.009 -3.0704,-1.87938 -4.7363,-4.15634 -4.2651,-5.82748 -6.7638,-5.73899 -21.2169,0.75283 -12.1027,5.43595 -12.2092,5.50673 -24.8022,16.47676 -6.9562,6.05965 -7.1671,4.37502 -7.2079,4.54933 -0.041,0.17443 -3.0422,7.20673 0.07,7.33469 z"
             id="path66059" />
          <path
             id="path66061"
             d="m -1900.8748,-550.38755 c -10.7067,0.53811 -13.1306,0.79497 -16.7171,1.77166 -2.7256,0.74209 -4.2046,0.49717 -5.3201,-0.88118 -1.5529,-1.91868 -3.1827,-0.91682 -2.0643,1.26919 0.839,1.64034 -3.8574,5.96477 -5.78,5.32169 -0.832,-0.27793 -1.6945,-0.17369 -1.9162,0.2324 -0.2224,0.4054 -1.311,-0.0357 -2.4209,-0.98197 -1.708,-1.45644 -2.1198,-1.34842 -2.6866,0.70578 -0.9178,3.32927 -2.2735,3.34575 -4.3172,0.0533 -1.2815,-2.06454 -1.5288,-3.39721 -0.9834,-5.3032 0.7688,-2.67443 0.6062,-3.06211 -2.9631,-7.14961 -2.3331,-2.67196 -3.2983,-7.34315 -2.0065,-9.70966 0.3494,-0.63431 0.052,-2.49454 -0.654,-4.12846 -1.571,-3.63063 -1.3687,-6.13448 0.4972,-6.15721 0.7677,-0.009 2.5103,-1.87938 3.8723,-4.15634 3.487,-5.82748 5.5299,-5.73899 17.3463,0.75283 9.8948,5.43595 10.714,-1.27845 21.0097,9.69158 5.6872,6.05965 9.6356,17.94538 9.6689,18.11969 0.034,0.17443 -2.021,0.42155 -4.5652,0.54951 z"
             style="opacity:0.48900003;fill:#eb4735;fill-opacity:1" />
        </g>
      </g>
    </g>
  </g>
</svg>
